Facade-Medium.ufo
<glyph name="ampersand" format="2">
  <advance width="800.0"/>
  <unicode hex="0026"/>
  <outline>
    <contour>
      <point x="370.5" y="-15.0" type="curve" smooth="yes"/>
      <point x="452.5" y="-15.0"/>
      <point x="533.5" y="12.5"/>
      <point x="601.0" y="68.5" type="curve"/>
      <point x="541.0" y="84.0" type="line"/>
      <point x="604.0" y="0.0" type="line"/>
      <point x="771.0" y="0.0" type="line"/>
      <point x="679.0" y="125.5" type="line"/>
      <point x="718.0" y="165.0"/>
      <point x="747.5" y="211.5"/>
      <point x="768.5" y="263.0" type="curve"/>
      <point x="673.5" y="393.5" type="line"/>
      <point x="669.5" y="333.0"/>
      <point x="646.0" y="274.5"/>
      <point x="608.5" y="227.5" type="curve"/>
      <point x="417.5" y="491.0" type="line"/>
      <point x="443.0" y="504.0" type="line" smooth="yes"/>
      <point x="485.0" y="525.5"/>
      <point x="594.0" y="581.0"/>
      <point x="594.0" y="703.5" type="curve" smooth="yes"/>
      <point x="594.0" y="823.5"/>
      <point x="488.0" y="915.0"/>
      <point x="368.5" y="915.0" type="curve" smooth="yes"/>
      <point x="249.5" y="915.0"/>
      <point x="149.0" y="824.0"/>
      <point x="149.0" y="702.5" type="curve" smooth="yes"/>
      <point x="149.0" y="635.0"/>
      <point x="180.0" y="587.0"/>
      <point x="214.0" y="540.5" type="curve" smooth="yes"/>
      <point x="226.5" y="524.0" type="line"/>
      <point x="144.0" y="475.5"/>
      <point x="67.5" y="398.5"/>
      <point x="64.5" y="275.0" type="curve" smooth="yes"/>
      <point x="60.0" y="107.0"/>
      <point x="192.5" y="-15.0"/>
    </contour>
    <contour>
      <point x="383.5" y="110.0" type="curve" smooth="yes"/>
      <point x="268.5" y="110.0"/>
      <point x="204.5" y="187.5"/>
      <point x="204.5" y="278.5" type="curve" smooth="yes"/>
      <point x="204.5" y="360.0"/>
      <point x="257.0" y="405.0"/>
      <point x="295.5" y="428.5" type="curve"/>
      <point x="502.0" y="142.0" type="line"/>
      <point x="465.5" y="122.5"/>
      <point x="426.0" y="110.0"/>
    </contour>
    <contour>
      <point x="348.5" y="585.5" type="line"/>
      <point x="324.0" y="620.5" type="line" smooth="yes"/>
      <point x="301.5" y="653.0"/>
      <point x="282.5" y="680.0"/>
      <point x="282.5" y="713.0" type="curve" smooth="yes"/>
      <point x="282.5" y="760.5"/>
      <point x="319.0" y="801.0"/>
      <point x="371.5" y="801.0" type="curve" smooth="yes"/>
      <point x="422.5" y="801.0"/>
      <point x="460.5" y="760.5"/>
      <point x="460.5" y="709.5" type="curve" smooth="yes"/>
      <point x="460.5" y="646.5"/>
      <point x="406.5" y="616.5"/>
      <point x="384.0" y="604.5" type="curve" smooth="yes"/>
    </contour>
  </outline>
</glyph>
<glyph name="comma" format="2">
  <advance width="280.0"/>
  <unicode hex="002C"/>
  <outline>
    <contour>
      <point x="-3.5" y="-150.0" type="curve"/>
      <point x="144.0" y="-150.0" type="line"/>
      <point x="202.5" y="-61.0"/>
      <point x="234.0" y="45.0"/>
      <point x="234.0" y="165.0" type="curve"/>
      <point x="96.0" y="165.0" type="line"/>
      <point x="96.0" y="30.5"/>
      <point x="55.0" y="-72.0"/>
    </contour>
  </outline>
</glyph>
<glyph name="zero" format="2">
  <advance width="750.0"/>
  <unicode hex="0030"/>
  <outline>
    <contour>
      <point x="375.0" y="-16.0" type="curve" smooth="yes"/>
      <point x="596.0" y="-16.0"/>
      <point x="699.0" y="223.0"/>
      <point x="699.0" y="450.0" type="curve" smooth="yes"/>
      <point x="699.0" y="677.0"/>
      <point x="596.0" y="916.0"/>
      <point x="375.0" y="916.0" type="curve" smooth="yes"/>
      <point x="154.0" y="916.0"/>
      <point x="51.0" y="677.0"/>
      <point x="51.0" y="450.0" type="curve" smooth="yes"/>
      <point x="51.0" y="223.0"/>
      <point x="154.0" y="-16.0"/>
    </contour>
    <contour>
      <point x="375.0" y="116.0" type="curve" smooth="yes"/>
      <point x="248.5" y="116.0"/>
      <point x="198.0" y="296.0"/>
      <point x="198.0" y="450.0" type="curve" smooth="yes"/>
      <point x="198.0" y="604.0"/>
      <point x="248.5" y="784.0"/>
      <point x="375.0" y="784.0" type="curve" smooth="yes"/>
      <point x="501.5" y="784.0"/>
      <point x="552.0" y="604.0"/>
      <point x="552.0" y="450.0" type="curve" smooth="yes"/>
      <point x="552.0" y="296.0"/>
      <point x="501.5" y="116.0"/>
    </contour>
  </outline>
</glyph>
<glyph name="three" format="2">
  <advance width="750.0"/>
  <unicode hex="0033"/>
  <outline>
    <contour>
      <point x="331.0" y="-16.0" type="curve" smooth="yes"/>
      <point x="507.0" y="-16.0"/>
      <point x="654.0" y="119.5"/>
      <point x="654.0" y="295.0" type="curve" smooth="yes"/>
      <point x="654.0" y="436.5"/>
      <point x="557.5" y="548.5"/>
      <point x="433.0" y="583.0" type="curve"/>
      <point x="603.0" y="900.0" type="line"/>
      <point x="123.0" y="900.0" type="line"/>
      <point x="123.0" y="774.0" type="line"/>
      <point x="444.0" y="774.0" type="line"/>
      <point x="414.0" y="817.0" type="line"/>
      <point x="225.0" y="450.5" type="line"/>
      <point x="257.5" y="468.0"/>
      <point x="291.5" y="478.0"/>
      <point x="330.0" y="478.0" type="curve" smooth="yes"/>
      <point x="436.5" y="478.0"/>
      <point x="515.0" y="397.0"/>
      <point x="515.0" y="297.5" type="curve" smooth="yes"/>
      <point x="515.0" y="196.0"/>
      <point x="434.5" y="116.0"/>
      <point x="332.0" y="116.0" type="curve" smooth="yes"/>
      <point x="234.5" y="116.0"/>
      <point x="156.0" y="188.5"/>
      <point x="138.5" y="282.0" type="curve"/>
      <point x="60.0" y="127.0" type="line"/>
      <point x="116.5" y="40.0"/>
      <point x="216.5" y="-16.0"/>
    </contour>
  </outline>
</glyph>
<glyph name="five" format="2">
  <advance width="750.0"/>
  <unicode hex="0035"/>
  <outline>
    <contour>
      <point x="333.0" y="-16.0" type="curve" smooth="yes"/>
      <point x="508.0" y="-16.0"/>
      <point x="654.0" y="120.0"/>
      <point x="654.0" y="296.5" type="curve" smooth="yes"/>
      <point x="654.0" y="471.0"/>
      <point x="514.0" y="599.0"/>
      <point x="353.5" y="599.0" type="curve" smooth="yes"/>
      <point x="331.5" y="599.0"/>
      <point x="309.5" y="596.5"/>
      <point x="289.0" y="588.5" type="curve"/>
      <point x="289.0" y="771.0" type="line"/>
      <point x="587.0" y="771.0" type="line"/>
      <point x="587.0" y="900.0" type="line"/>
      <point x="168.0" y="900.0" type="line"/>
      <point x="168.0" y="401.5" type="line"/>
      <point x="206.0" y="447.0"/>
      <point x="263.5" y="477.0"/>
      <point x="327.0" y="477.0" type="curve" smooth="yes"/>
      <point x="430.5" y="477.0"/>
      <point x="515.0" y="400.5"/>
      <point x="515.0" y="297.5" type="curve" smooth="yes"/>
      <point x="515.0" y="195.5"/>
      <point x="432.5" y="116.0"/>
      <point x="332.0" y="116.0" type="curve" smooth="yes"/>
      <point x="234.5" y="116.0"/>
      <point x="156.0" y="188.5"/>
      <point x="138.5" y="282.0" type="curve"/>
      <point x="60.0" y="127.0" type="line"/>
      <point x="116.5" y="40.0"/>
      <point x="217.5" y="-16.0"/>
    </contour>
  </outline>
</glyph>
<glyph name="six" format="2">
  <advance width="750.0"/>
  <unicode hex="0036"/>
  <outline>
    <contour>
      <point x="381.0" y="-16.0" type="curve" smooth="yes"/>
      <point x="560.5" y="-16.0"/>
      <point x="702.0" y="119.5"/>
      <point x="702.0" y="295.0" type="curve" smooth="yes"/>
      <point x="702.0" y="467.5"/>
      <point x="565.5" y="600.0"/>
      <point x="398.5" y="600.0" type="curve" smooth="yes"/>
      <point x="351.5" y="600.0"/>
      <point x="305.5" y="589.0"/>
      <point x="263.0" y="548.5" type="curve"/>
      <point x="294.0" y="536.0" type="line"/>
      <point x="492.0" y="900.0" type="line"/>
      <point x="338.0" y="900.0" type="line"/>
      <point x="99.5" y="446.0" type="line" smooth="yes"/>
      <point x="74.5" y="398.0"/>
      <point x="60.0" y="347.5"/>
      <point x="60.0" y="293.5" type="curve" smooth="yes"/>
      <point x="60.0" y="119.5"/>
      <point x="201.5" y="-16.0"/>
    </contour>
    <contour>
      <point x="381.5" y="116.0" type="curve" smooth="yes"/>
      <point x="280.0" y="116.0"/>
      <point x="200.0" y="197.5"/>
      <point x="200.0" y="297.0" type="curve" smooth="yes"/>
      <point x="200.0" y="396.0"/>
      <point x="280.0" y="478.0"/>
      <point x="381.5" y="478.0" type="curve" smooth="yes"/>
      <point x="484.0" y="478.0"/>
      <point x="563.0" y="396.0"/>
      <point x="563.0" y="297.0" type="curve" smooth="yes"/>
      <point x="563.0" y="197.5"/>
      <point x="483.0" y="116.0"/>
    </contour>
  </outline>
</glyph>
<glyph name="seven" format="2">
  <advance width="750.0"/>
  <unicode hex="0037"/>
  <outline>
    <contour>
      <point x="116.0" y="0.0" type="line"/>
      <point x="276.0" y="0.0" type="line"/>
      <point x="710.0" y="900.0" type="line"/>
      <point x="84.0" y="900.0" type="line"/>
      <point x="84.0" y="768.0" type="line"/>
      <point x="555.0" y="768.0" type="line"/>
      <point x="518.0" y="825.0" type="line"/>
    </contour>
  </outline>
</glyph>
<glyph name="equal" format="2">
  <advance width="750.0"/>
  <unicode hex="003D"/>
  <outline>
    <contour>
      <point x="85.0" y="274.0" type="line"/>
      <point x="665.0" y="274.0" type="line"/>
      <point x="665.0" y="388.0" type="line"/>
      <point x="85.0" y="388.0" type="line"/>
    </contour>
    <contour>
      <point x="85.0" y="512.0" type="line"/>
      <point x="665.0" y="512.0" type="line"/>
      <point x="665.0" y="626.0" type="line"/>
      <point x="85.0" y="626.0" type="line"/>
    </contour>
  </outline>
</glyph>
<glyph name="question" format="2">
  <advance width="480.0"/>
  <unicode hex="003F"/>
  <outline>
    <contour>
      <point x="183.0" y="315.0" type="curve"/>
      <point x="297.0" y="315.0" type="line"/>
      <point x="312.5" y="472.5"/>
      <point x="456.0" y="545.5"/>
      <point x="456.0" y="701.0" type="curve" smooth="yes"/>
      <point x="456.0" y="821.5"/>
      <point x="368.0" y="915.0"/>
      <point x="228.5" y="915.0" type="curve" smooth="yes"/>
      <point x="169.0" y="915.0"/>
      <point x="118.5" y="897.5"/>
      <point x="78.0" y="867.5" type="curve"/>
      <point x="78.0" y="715.5" type="line"/>
      <point x="108.0" y="754.0"/>
      <point x="154.5" y="787.0"/>
      <point x="212.0" y="787.0" type="curve" smooth="yes"/>
      <point x="276.5" y="787.0"/>
      <point x="321.0" y="748.5"/>
      <point x="321.0" y="685.5" type="curve" smooth="yes"/>
      <point x="321.0" y="573.0"/>
      <point x="183.0" y="509.5"/>
    </contour>
    <contour>
      <point x="240.0" y="-16.0" type="curve" smooth="yes"/>
      <point x="291.0" y="-16.0"/>
      <point x="330.0" y="23.5"/>
      <point x="330.0" y="74.0" type="curve" smooth="yes"/>
      <point x="330.0" y="124.5"/>
      <point x="291.0" y="164.0"/>
      <point x="240.0" y="164.0" type="curve" smooth="yes"/>
      <point x="189.5" y="164.0"/>
      <point x="150.0" y="124.5"/>
      <point x="150.0" y="74.0" type="curve" smooth="yes"/>
      <point x="150.0" y="23.5"/>
      <point x="189.5" y="-16.0"/>
    </contour>
  </outline>
</glyph>
<glyph name="C" format="2">
  <advance width="885.0"/>
  <unicode hex="0043"/>
  <anchor x="530.0" y="0.0" name="bottom"/>
  <anchor x="530.0" y="900.0" name="top"/>
  <outline>
    <contour>
      <point x="530.0" y="-18.0" type="curve" smooth="yes"/>
      <point x="653.5" y="-18.0"/>
      <point x="764.0" y="28.5"/>
      <point x="848.5" y="104.0" type="curve"/>
      <point x="806.5" y="278.0" type="line"/>
      <point x="751.0" y="187.5"/>
      <point x="652.0" y="123.0"/>
      <point x="533.0" y="123.0" type="curve" smooth="yes"/>
      <point x="352.5" y="123.0"/>
      <point x="213.0" y="269.0"/>
      <point x="213.0" y="450.0" type="curve" smooth="yes"/>
      <point x="213.0" y="631.0"/>
      <point x="352.5" y="777.0"/>
      <point x="533.0" y="777.0" type="curve" smooth="yes"/>
      <point x="652.0" y="777.0"/>
      <point x="750.5" y="712.5"/>
      <point x="806.5" y="622.0" type="curve"/>
      <point x="848.5" y="796.0" type="line"/>
      <point x="764.5" y="872.0"/>
      <point x="653.0" y="918.0"/>
      <point x="530.0" y="918.0" type="curve" smooth="yes"/>
      <point x="268.5" y="918.0"/>
      <point x="57.0" y="709.0"/>
      <point x="57.0" y="450.0" type="curve" smooth="yes"/>
      <point x="57.0" y="191.0"/>
      <point x="268.5" y="-18.0"/>
    </contour>
  </outline>
</glyph>
<glyph name="M" format="2">
  <advance width="1060.0"/>
  <unicode hex="004D"/>
  <outline>
    <contour>
      <point x="111.0" y="0.0" type="line"/>
      <point x="249.0" y="0.0" type="line"/>
      <point x="249.0" y="337.0" type="line" smooth="yes"/>
      <point x="249.0" y="394.0"/>
      <point x="249.0" y="461.0"/>
      <point x="239.5" y="551.0" type="curve"/>
      <point x="280.5" y="482.0"/>
      <point x="322.0" y="426.0"/>
      <point x="354.0" y="383.0" type="curve" smooth="yes"/>
      <point x="530.5" y="146.5" type="line"/>
      <point x="701.5" y="383.0" type="line" smooth="yes"/>
      <point x="733.5" y="427.5"/>
      <point x="773.0" y="477.5"/>
      <point x="814.5" y="549.5" type="curve"/>
      <point x="805.0" y="460.5"/>
      <point x="805.0" y="393.5"/>
      <point x="805.0" y="337.0" type="curve" smooth="yes"/>
      <point x="805.0" y="0.0" type="line"/>
      <point x="949.0" y="0.0" type="line"/>
      <point x="949.0" y="930.0" type="line"/>
      <point x="534.0" y="376.0" type="line"/>
      <point x="111.0" y="930.0" type="line"/>
    </contour>
  </outline>
</glyph>
<glyph name="N" format="2">
  <advance width="945.0"/>
  <unicode hex="004E"/>
  <anchor x="480.0" y="0.0" name="bottom"/>
  <anchor x="480.0" y="900.0" name="top"/>
  <outline>
    <contour>
      <point x="834.0" y="-30.0" type="line"/>
      <point x="834.0" y="900.0" type="line"/>
      <point x="696.0" y="900.0" type="line"/>
      <point x="696.0" y="323.5" type="line"/>
      <point x="111.0" y="930.0" type="line"/>
      <point x="111.0" y="0.0" type="line"/>
      <point x="249.0" y="0.0" type="line"/>
      <point x="249.0" y="577.0" type="line"/>
    </contour>
  </outline>
</glyph>
<glyph name="W" format="2">
  <advance width="1210.0"/>
  <unicode hex="0057"/>
  <anchor x="606.0" y="0.0" name="bottom"/>
  <anchor x="609.0" y="900.0" name="top"/>
  <outline>
    <contour>
      <point x="367.5" y="-31.0" type="line"/>
      <point x="565.0" y="483.5" type="line" smooth="yes"/>
      <point x="578.5" y="518.5"/>
      <point x="591.5" y="550.5"/>
      <point x="605.5" y="604.0" type="curve"/>
      <point x="619.0" y="550.5"/>
      <point x="632.5" y="518.0"/>
      <point x="646.0" y="483.0" type="curve" smooth="yes"/>
      <point x="843.0" y="-31.0" type="line"/>
      <point x="1201.0" y="900.0" type="line"/>
      <point x="1056.5" y="900.0" type="line"/>
      <point x="879.5" y="438.0" type="line" smooth="yes"/>
      <point x="866.0" y="403.0"/>
      <point x="854.0" y="370.5"/>
      <point x="840.0" y="317.0" type="curve"/>
      <point x="826.5" y="370.5"/>
      <point x="812.0" y="403.0"/>
      <point x="798.5" y="438.0" type="curve" smooth="yes"/>
      <point x="609.0" y="930.0" type="line"/>
      <point x="420.0" y="438.0" type="line" smooth="yes"/>
      <point x="405.5" y="401.0"/>
      <point x="392.5" y="368.5"/>
      <point x="379.0" y="317.0" type="curve"/>
      <point x="365.0" y="368.5"/>
      <point x="354.0" y="401.0"/>
      <point x="340.0" y="438.0" type="curve" smooth="yes"/>
      <point x="162.0" y="900.0" type="line"/>
      <point x="9.0" y="900.0" type="line"/>
    </contour>
  </outline>
</glyph>
<glyph name="backslash" format="2">
  <advance width="540.0"/>
  <unicode hex="005C"/>
  <outline>
    <contour>
      <point x="479.5" y="-180.0" type="line"/>
      <point x="607.0" y="-180.0" type="line"/>
      <point x="61.0" y="960.0" type="line"/>
      <point x="-67.0" y="960.0" type="line"/>
    </contour>
  </outline>
</glyph>
<glyph name="bracketright" format="2">
  <advance width="480.0"/>
  <unicode hex="005D"/>
  <outline>
    <contour>
      <point x="60.0" y="-180.0" type="line"/>
      <point x="375.0" y="-180.0" type="line"/>
      <point x="375.0" y="960.0" type="line"/>
      <point x="60.0" y="960.0" type="line"/>
      <point x="60.0" y="849.0" type="line"/>
      <point x="249.0" y="849.0" type="line"/>
      <point x="249.0" y="-69.0" type="line"/>
      <point x="60.0" y="-69.0" type="line"/>
    </contour>
  </outline>
</glyph>
<glyph name="asciicircum" format="2">
  <advance width="750.0"/>
  <unicode hex="005E"/>
  <outline>
    <contour>
      <point x="67.0" y="177.0" type="line"/>
      <point x="193.5" y="177.0" type="line"/>
      <point x="323.5" y="447.0" type="line" smooth="yes"/>
      <point x="341.5" y="484.0"/>
      <point x="358.5" y="527.0"/>
      <point x="375.0" y="568.0" type="curve"/>
      <point x="391.5" y="527.0"/>
      <point x="408.5" y="484.0"/>
      <point x="426.5" y="447.0" type="curve" smooth="yes"/>
      <point x="556.5" y="177.0" type="line"/>
      <point x="683.0" y="177.0" type="line"/>
      <point x="376.0" y="804.0" type="line"/>
    </contour>
  </outline>
</glyph>
<glyph name="a" format="2">
  <advance width="750.0"/>
  <unicode hex="0061"/>
  <anchor x="360.5" y="0.0" name="bottom"/>
  <anchor x="606.5" y="0.0" name="ogonek"/>
  <anchor x="365.5" y="600.0" name="top"/>
  <outline>
    <contour>
      <point x="344.5" y="-12.0" type="curve" smooth="yes"/>
      <point x="449.5" y="-12.0"/>
      <point x="536.0" y="41.5"/>
      <point x="584.0" y="122.5" type="curve"/>
      <point x="544.0" y="150.0" type="line"/>
      <point x="544.0" y="0.0" type="line"/>
      <point x="669.0" y="0.0" type="line"/>
      <point x="669.0" y="600.0" type="line"/>
      <point x="544.0" y="600.0" type="line"/>
      <point x="544.0" y="450.0" type="line"/>
      <point x="584.0" y="477.5" type="line"/>
      <point x="536.0" y="558.5"/>
      <point x="449.5" y="612.0"/>
      <point x="344.5" y="612.0" type="curve" smooth="yes"/>
      <point x="179.0" y="612.0"/>
      <point x="45.0" y="472.0"/>
      <point x="45.0" y="300.0" type="curve" smooth="yes"/>
      <point x="45.0" y="128.0"/>
      <point x="179.0" y="-12.0"/>
    </contour>
    <contour>
      <point x="362.0" y="113.5" type="curve" smooth="yes"/>
      <point x="261.0" y="113.5"/>
      <point x="180.0" y="197.0"/>
      <point x="180.0" y="300.0" type="curve" smooth="yes"/>
      <point x="180.0" y="403.0"/>
      <point x="261.0" y="486.5"/>
      <point x="362.0" y="486.5" type="curve" smooth="yes"/>
      <point x="463.0" y="486.5"/>
      <point x="544.0" y="403.0"/>
      <point x="544.0" y="300.0" type="curve" smooth="yes"/>
      <point x="544.0" y="197.0"/>
      <point x="463.0" y="113.5"/>
    </contour>
  </outline>
</glyph>
<glyph name="c" format="2">
  <advance width="615.0"/>
  <unicode hex="0063"/>
  <anchor x="371.0" y="0.0" name="bottom"/>
  <anchor x="371.0" y="600.0" name="top"/>
  <outline>
    <contour>
      <point x="366.0" y="-16.0" type="curve" smooth="yes"/>
      <point x="451.0" y="-16.0"/>
      <point x="527.5" y="14.5"/>
      <point x="585.0" y="66.5" type="curve"/>
      <point x="546.0" y="223.0" type="line"/>
      <point x="512.5" y="161.0"/>
      <point x="448.5" y="113.0"/>
      <point x="369.0" y="113.0" type="curve" smooth="yes"/>
      <point x="264.0" y="113.0"/>
      <point x="183.0" y="197.0"/>
      <point x="183.0" y="300.0" type="curve" smooth="yes"/>
      <point x="183.0" y="403.0"/>
      <point x="264.0" y="487.0"/>
      <point x="369.0" y="487.0" type="curve" smooth="yes"/>
      <point x="448.5" y="487.0"/>
      <point x="512.5" y="437.5"/>
      <point x="546.0" y="377.0" type="curve"/>
      <point x="585.0" y="533.5" type="line"/>
      <point x="527.5" y="585.5"/>
      <point x="451.0" y="616.0"/>
      <point x="366.0" y="616.0" type="curve" smooth="yes"/>
      <point x="188.5" y="616.0"/>
      <point x="45.0" y="474.5"/>
      <point x="45.0" y="300.0" type="curve" smooth="yes"/>
      <point x="45.0" y="125.5"/>
      <point x="188.5" y="-16.0"/>
    </contour>
  </outline>
</glyph>
<glyph name="m" format="2">
  <advance width="1100.0"/>
  <unicode hex="006D"/>
  <anchor x="566.0" y="0.0" name="bottom"/>
  <anchor x="566.0" y="600.0" name="top"/>
  <outline>
    <contour>
      <point x="222.0" y="344.5" type="line"/>
      <point x="222.0" y="442.5"/>
      <point x="288.5" y="487.0"/>
      <point x="354.0" y="487.0" type="curve" smooth="yes"/>
      <point x="427.0" y="487.0"/>
      <point x="485.5" y="430.5"/>
      <point x="485.5" y="342.0" type="curve" smooth="yes"/>
      <point x="485.5" y="0.0" type="line"/>
      <point x="626.5" y="0.0" type="line"/>
      <point x="626.5" y="361.0" type="line" smooth="yes"/>
      <point x="626.5" y="519.5"/>
      <point x="519.0" y="616.0"/>
      <point x="393.5" y="616.0" type="curve" smooth="yes"/>
      <point x="271.0" y="616.0"/>
      <point x="160.5" y="526.5"/>
      <point x="160.5" y="357.0" type="curve"/>
    </contour>
    <contour>
      <point x="81.0" y="0.0" type="line"/>
      <point x="222.0" y="0.0" type="line"/>
      <point x="222.0" y="424.5" type="line"/>
      <point x="209.0" y="451.0" type="line"/>
      <point x="209.0" y="600.0" type="line"/>
      <point x="81.0" y="600.0" type="line"/>
    </contour>
    <contour>
      <point x="626.5" y="344.5" type="line"/>
      <point x="626.5" y="442.0"/>
      <point x="692.0" y="486.5"/>
      <point x="758.5" y="486.5" type="curve" smooth="yes"/>
      <point x="834.0" y="486.5"/>
      <point x="890.0" y="428.5"/>
      <point x="890.0" y="342.0" type="curve" smooth="yes"/>
      <point x="890.0" y="0.0" type="line"/>
      <point x="1031.0" y="0.0" type="line"/>
      <point x="1031.0" y="361.0" type="line" smooth="yes"/>
      <point x="1031.0" y="519.5"/>
      <point x="916.0" y="616.0"/>
      <point x="784.0" y="616.0" type="curve" smooth="yes"/>
      <point x="649.0" y="616.0"/>
      <point x="531.5" y="526.5"/>
      <point x="531.5" y="357.0" type="curve"/>
    </contour>
  </outline>
</glyph>
<glyph name="o" format="2">
  <advance width="730.0"/>
  <unicode hex="006F"/>
  <anchor x="365.0" y="0.0" name="bottom"/>
  <anchor x="365.0" y="300.0" name="center"/>
  <anchor x="395.0" y="0.0" name="ogonek"/>
  <anchor x="365.0" y="600.0" name="top"/>
  <anchor x="525.0" y="600.0" name="topright"/>
  <outline>
    <contour>
      <point x="365.0" y="-16.0" type="curve" smooth="yes"/>
      <point x="542.0" y="-16.0"/>
      <point x="685.0" y="125.0"/>
      <point x="685.0" y="300.0" type="curve" smooth="yes"/>
      <point x="685.0" y="475.0"/>
      <point x="542.0" y="616.0"/>
      <point x="365.0" y="616.0" type="curve" smooth="yes"/>
      <point x="188.0" y="616.0"/>
      <point x="45.0" y="475.0"/>
      <point x="45.0" y="300.0" type="curve" smooth="yes"/>
      <point x="45.0" y="125.0"/>
      <point x="188.0" y="-16.0"/>
    </contour>
    <contour>
      <point x="365.0" y="113.0" type="curve" smooth="yes"/>
      <point x="262.0" y="113.0"/>
      <point x="180.5" y="196.5"/>
      <point x="180.5" y="300.0" type="curve" smooth="yes"/>
      <point x="180.5" y="403.5"/>
      <point x="262.0" y="487.0"/>
      <point x="365.0" y="487.0" type="curve" smooth="yes"/>
      <point x="467.0" y="487.0"/>
      <point x="549.5" y="403.5"/>
      <point x="549.5" y="300.0" type="curve" smooth="yes"/>
      <point x="549.5" y="196.5"/>
      <point x="467.0" y="113.0"/>
    </contour>
  </outline>
</glyph>
<glyph name="s" format="2">
  <advance width="520.0"/>
  <unicode hex="0073"/>
  <anchor x="260.0" y="0.0" name="bottom"/>
  <anchor x="263.0" y="600.0" name="top"/>
  <outline>
    <contour>
      <point x="257.0" y="-16.0" type="curve" smooth="yes"/>
      <point x="383.5" y="-16.0"/>
      <point x="473.0" y="61.0"/>
      <point x="473.0" y="173.0" type="curve" smooth="yes"/>
      <point x="473.0" y="292.0"/>
      <point x="378.0" y="329.5"/>
      <point x="322.0" y="350.5" type="curve" smooth="yes"/>
      <point x="242.5" y="380.5" type="line" smooth="yes"/>
      <point x="204.0" y="395.0"/>
      <point x="187.5" y="416.5"/>
      <point x="187.5" y="441.5" type="curve" smooth="yes"/>
      <point x="187.5" y="473.0"/>
      <point x="213.5" y="501.0"/>
      <point x="262.5" y="501.0" type="curve" smooth="yes"/>
      <point x="320.0" y="501.0"/>
      <point x="383.0" y="465.5"/>
      <point x="422.0" y="407.5" type="curve"/>
      <point x="457.0" y="545.5" type="line"/>
      <point x="417.0" y="588.5"/>
      <point x="340.0" y="616.0"/>
      <point x="266.5" y="616.0" type="curve" smooth="yes"/>
      <point x="139.0" y="616.0"/>
      <point x="62.5" y="530.5"/>
      <point x="62.5" y="431.0" type="curve" smooth="yes"/>
      <point x="62.5" y="320.0"/>
      <point x="153.0" y="281.0"/>
      <point x="204.0" y="261.5" type="curve" smooth="yes"/>
      <point x="286.5" y="230.0" type="line" smooth="yes"/>
      <point x="312.0" y="220.5"/>
      <point x="348.0" y="205.0"/>
      <point x="348.0" y="163.5" type="curve" smooth="yes"/>
      <point x="348.0" y="127.5"/>
      <point x="321.5" y="99.0"/>
      <point x="265.0" y="99.0" type="curve" smooth="yes"/>
      <point x="195.0" y="99.0"/>
      <point x="126.0" y="142.0"/>
      <point x="88.5" y="200.0" type="curve"/>
      <point x="52.0" y="59.0" type="line"/>
      <point x="101.0" y="9.0"/>
      <point x="185.0" y="-16.0"/>
    </contour>
  </outline>
</glyph>
<glyph name="v" format="2">
  <advance width="650.0"/>
  <unicode hex="0076"/>
  <outline>
    <contour>
      <point x="325.0" y="-30.0" type="line"/>
      <point x="641.0" y="600.0" type="line"/>
      <point x="491.0" y="600.0" type="line"/>
      <point x="382.5" y="373.5" type="line" smooth="yes"/>
      <point x="356.5" y="319.5"/>
      <point x="333.5" y="273.5"/>
      <point x="310.5" y="184.0" type="curve"/>
      <point x="346.5" y="183.5" type="line"/>
      <point x="323.5" y="273.5"/>
      <point x="301.0" y="319.0"/>
      <point x="275.0" y="373.5" type="curve" smooth="yes"/>
      <point x="167.0" y="600.0" type="line"/>
      <point x="9.0" y="600.0" type="line"/>
    </contour>
  </outline>
</glyph>
<glyph name="w" format="2">
  <advance width="1000.0"/>
  <unicode hex="0077"/>
  <anchor x="500.0" y="0.0" name="bottom"/>
  <anchor x="504.0" y="600.0" name="top"/>
  <outline>
    <contour>
      <point x="310.0" y="-30.0" type="line"/>
      <point x="439.0" y="219.5" type="line" smooth="yes"/>
      <point x="460.5" y="261.0"/>
      <point x="481.0" y="299.5"/>
      <point x="500.0" y="353.0" type="curve"/>
      <point x="519.5" y="299.5"/>
      <point x="539.0" y="261.0"/>
      <point x="560.5" y="219.5" type="curve" smooth="yes"/>
      <point x="690.0" y="-30.0" type="line"/>
      <point x="991.0" y="600.0" type="line"/>
      <point x="844.0" y="600.0" type="line"/>
      <point x="736.5" y="373.5" type="line" smooth="yes"/>
      <point x="717.0" y="332.5"/>
      <point x="698.0" y="294.5"/>
      <point x="679.5" y="233.0" type="curve"/>
      <point x="660.5" y="292.5"/>
      <point x="640.5" y="330.0"/>
      <point x="622.5" y="369.5" type="curve" smooth="yes"/>
      <point x="504.0" y="624.0" type="line"/>
      <point x="387.0" y="369.5" type="line" smooth="yes"/>
      <point x="368.5" y="329.0"/>
      <point x="348.0" y="290.5"/>
      <point x="328.0" y="233.0" type="curve"/>
      <point x="309.0" y="292.5"/>
      <point x="290.5" y="332.0"/>
      <point x="270.5" y="373.5" type="curve" smooth="yes"/>
      <point x="164.0" y="600.0" type="line"/>
      <point x="9.0" y="600.0" type="line"/>
    </contour>
  </outline>
</glyph>
<glyph name="z" format="2">
  <advance width="530.0"/>
  <unicode hex="007A"/>
  <anchor x="257.0" y="0.0" name="bottom"/>
  <anchor x="265.0" y="300.0" name="center"/>
  <anchor x="274.0" y="600.0" name="top"/>
  <outline>
    <contour>
      <point x="212.0" y="76.0" type="line"/>
      <point x="178.0" y="120.0" type="line"/>
      <point x="482.0" y="120.0" type="line"/>
      <point x="482.0" y="0.0" type="line"/>
      <point x="31.0" y="0.0" type="line"/>
      <point x="318.0" y="524.0" type="line"/>
      <point x="352.0" y="480.0" type="line"/>
      <point x="50.0" y="480.0" type="line"/>
      <point x="50.0" y="600.0" type="line"/>
      <point x="499.0" y="600.0" type="line"/>
    </contour>
  </outline>
</glyph>
<glyph name="asciitilde" format="2">
  <advance width="750.0"/>
  <unicode hex="007E"/>
  <outline>
    <contour>
      <point x="98.5" y="326.0" type="line"/>
      <point x="127.5" y="389.5"/>
      <point x="171.0" y="432.0"/>
      <point x="233.0" y="432.0" type="curve" smooth="yes"/>
      <point x="320.0" y="432.0"/>
      <point x="402.5" y="348.0"/>
      <point x="513.5" y="348.0" type="curve" smooth="yes"/>
      <point x="595.0" y="348.0"/>
      <point x="668.0" y="393.5"/>
      <point x="707.5" y="472.0" type="curve"/>
      <point x="648.0" y="574.0" type="line"/>
      <point x="619.0" y="510.5"/>
      <point x="575.5" y="468.0"/>
      <point x="513.5" y="468.0" type="curve" smooth="yes"/>
      <point x="426.5" y="468.0"/>
      <point x="344.0" y="552.0"/>
      <point x="233.0" y="552.0" type="curve" smooth="yes"/>
      <point x="151.5" y="552.0"/>
      <point x="78.5" y="506.5"/>
      <point x="39.0" y="428.0" type="curve"/>
    </contour>
  </outline>
</glyph>
<glyph name="sterling" format="2">
  <advance width="750.0"/>
  <unicode hex="00A3"/>
  <outline>
    <contour>
      <point x="139.0" y="0.0" type="curve"/>
      <point x="669.0" y="0.0" type="line"/>
      <point x="669.0" y="126.0" type="line"/>
      <point x="280.0" y="126.0" type="line"/>
      <point x="205.0" y="15.0" type="line"/>
      <point x="304.0" y="51.5"/>
      <point x="381.0" y="94.5"/>
      <point x="381.0" y="227.0" type="curve" smooth="yes"/>
      <point x="381.0" y="333.0"/>
      <point x="331.0" y="490.5"/>
      <point x="331.0" y="596.5" type="curve" smooth="yes"/>
      <point x="331.0" y="718.5"/>
      <point x="392.5" y="787.0"/>
      <point x="477.5" y="787.0" type="curve" smooth="yes"/>
      <point x="549.0" y="787.0"/>
      <point x="602.0" y="738.5"/>
      <point x="635.0" y="677.0" type="curve"/>
      <point x="674.5" y="834.5" type="line"/>
      <point x="620.0" y="887.0"/>
      <point x="554.0" y="916.0"/>
      <point x="474.0" y="916.0" type="curve" smooth="yes"/>
      <point x="309.0" y="916.0"/>
      <point x="193.0" y="794.5"/>
      <point x="193.0" y="608.5" type="curve" smooth="yes"/>
      <point x="193.0" y="482.5"/>
      <point x="249.0" y="329.5"/>
      <point x="249.0" y="216.5" type="curve" smooth="yes"/>
      <point x="249.0" y="123.5"/>
      <point x="210.5" y="75.5"/>
    </contour>
    <contour>
      <point x="90.0" y="402.0" type="line"/>
      <point x="600.0" y="402.0" type="line"/>
      <point x="600.0" y="498.0" type="line"/>
      <point x="90.0" y="498.0" type="line"/>
    </contour>
  </outline>
</glyph>
<glyph name="currency" format="2">
  <advance width="750.0"/>
  <unicode hex="00A4"/>
  <outline>
    <contour>
      <point x="117.0" y="112.0" type="line"/>
      <point x="194.5" y="189.5" type="line"/>
      <point x="246.0" y="155.0"/>
      <point x="308.0" y="135.0"/>
      <point x="375.0" y="135.0" type="curve" smooth="yes"/>
      <point x="441.5" y="135.0"/>
      <point x="503.0" y="155.0"/>
      <point x="553.5" y="189.5" type="curve"/>
      <point x="631.0" y="112.0" type="line"/>
      <point x="713.5" y="194.5" type="line"/>
      <point x="637.0" y="271.0" type="line"/>
      <point x="673.0" y="321.5"/>
      <point x="694.0" y="383.5"/>
      <point x="694.0" y="450.0" type="curve" smooth="yes"/>
      <point x="694.0" y="517.5"/>
      <point x="672.5" y="580.0"/>
      <point x="636.0" y="631.0" type="curve"/>
      <point x="713.0" y="708.0" type="line"/>
      <point x="633.0" y="788.0" type="line"/>
      <point x="555.5" y="710.5" type="line"/>
      <point x="504.0" y="745.0"/>
      <point x="442.0" y="765.0"/>
      <point x="375.0" y="765.0" type="curve" smooth="yes"/>
      <point x="309.0" y="765.0"/>
      <point x="247.5" y="745.0"/>
      <point x="197.0" y="711.0" type="curve"/>
      <point x="119.5" y="788.5" type="line"/>
      <point x="37.0" y="706.0" type="line"/>
      <point x="113.0" y="630.0" type="line"/>
      <point x="77.0" y="579.0"/>
      <point x="56.0" y="517.0"/>
      <point x="56.0" y="450.0" type="curve" smooth="yes"/>
      <point x="56.0" y="382.5"/>
      <point x="77.5" y="320.0"/>
      <point x="114.0" y="269.0" type="curve"/>
      <point x="37.0" y="192.0" type="line"/>
    </contour>
    <contour>
      <point x="375.0" y="264.0" type="curve" smooth="yes"/>
      <point x="272.5" y="264.0"/>
      <point x="191.0" y="347.5"/>
      <point x="191.0" y="450.0" type="curve" smooth="yes"/>
      <point x="191.0" y="552.5"/>
      <point x="272.5" y="636.0"/>
      <point x="375.0" y="636.0" type="curve" smooth="yes"/>
      <point x="477.0" y="636.0"/>
      <point x="559.0" y="552.5"/>
      <point x="559.0" y="450.0" type="curve" smooth="yes"/>
      <point x="559.0" y="347.5"/>
      <point x="477.0" y="264.0"/>
    </contour>
  </outline>
</glyph>
<glyph name="section" format="2">
  <advance width="750.0"/>
  <unicode hex="00A7"/>
  <outline>
    <contour>
      <point x="366.0" y="-192.0" type="curve" smooth="yes"/>
      <point x="507.0" y="-192.0"/>
      <point x="612.0" y="-97.5"/>
      <point x="612.0" y="36.5" type="curve" smooth="yes"/>
      <point x="612.0" y="131.0"/>
      <point x="559.0" y="187.0"/>
      <point x="510.5" y="219.0" type="curve"/>
      <point x="493.0" y="191.0" type="line"/>
      <point x="601.5" y="210.5"/>
      <point x="684.0" y="287.0"/>
      <point x="684.0" y="402.5" type="curve" smooth="yes"/>
      <point x="684.0" y="534.0"/>
      <point x="576.5" y="588.5"/>
      <point x="521.0" y="614.0" type="curve" smooth="yes"/>
      <point x="354.0" y="691.5" type="line" smooth="yes"/>
      <point x="325.0" y="705.0"/>
      <point x="289.5" y="730.0"/>
      <point x="289.5" y="776.0" type="curve" smooth="yes"/>
      <point x="289.5" y="820.0"/>
      <point x="322.5" y="857.0"/>
      <point x="381.5" y="857.0" type="curve" smooth="yes"/>
      <point x="442.0" y="857.0"/>
      <point x="506.5" y="819.0"/>
      <point x="543.0" y="763.5" type="curve"/>
      <point x="584.5" y="897.5" type="line"/>
      <point x="548.5" y="936.0"/>
      <point x="471.0" y="972.0"/>
      <point x="386.0" y="972.0" type="curve" smooth="yes"/>
      <point x="252.5" y="972.0"/>
      <point x="162.0" y="882.5"/>
      <point x="162.0" y="763.5" type="curve" smooth="yes"/>
      <point x="162.0" y="683.5"/>
      <point x="201.5" y="635.5"/>
      <point x="244.5" y="604.0" type="curve"/>
      <point x="263.0" y="633.0" type="line"/>
      <point x="148.5" y="613.5"/>
      <point x="66.0" y="533.0"/>
      <point x="66.0" y="417.5" type="curve" smooth="yes"/>
      <point x="66.0" y="284.5"/>
      <point x="175.0" y="234.0"/>
      <point x="229.0" y="208.5" type="curve" smooth="yes"/>
      <point x="402.0" y="128.0" type="line" smooth="yes"/>
      <point x="427.0" y="116.5"/>
      <point x="484.5" y="88.5"/>
      <point x="484.5" y="25.5" type="curve" smooth="yes"/>
      <point x="484.5" y="-31.0"/>
      <point x="441.0" y="-76.0"/>
      <point x="371.5" y="-76.0" type="curve" smooth="yes"/>
      <point x="296.0" y="-76.0"/>
      <point x="221.0" y="-24.5"/>
      <point x="191.0" y="36.0" type="curve"/>
      <point x="146.0" y="-104.5" type="line"/>
      <point x="192.5" y="-157.0"/>
      <point x="280.5" y="-192.0"/>
    </contour>
    <contour>
      <point x="430.0" y="272.0" type="curve" smooth="yes"/>
      <point x="416.5" y="272.0"/>
      <point x="402.5" y="273.5"/>
      <point x="389.0" y="277.5" type="curve"/>
      <point x="349.5" y="292.0"/>
      <point x="325.0" y="303.5"/>
      <point x="301.5" y="316.0" type="curve" smooth="yes"/>
      <point x="257.5" y="339.5"/>
      <point x="193.5" y="367.0"/>
      <point x="193.5" y="437.5" type="curve" smooth="yes"/>
      <point x="193.5" y="500.5"/>
      <point x="243.5" y="550.0"/>
      <point x="320.5" y="550.0" type="curve" smooth="yes"/>
      <point x="335.0" y="550.0"/>
      <point x="350.5" y="548.5"/>
      <point x="364.0" y="544.0" type="curve"/>
      <point x="381.0" y="537.0"/>
      <point x="397.5" y="531.0"/>
      <point x="448.5" y="506.0" type="curve" smooth="yes"/>
      <point x="496.0" y="482.5"/>
      <point x="556.5" y="455.0"/>
      <point x="556.5" y="385.5" type="curve" smooth="yes"/>
      <point x="556.5" y="322.5"/>
      <point x="506.5" y="272.0"/>
    </contour>
  </outline>
</glyph>
<glyph name="ordfeminine" format="2">
  <advance width="480.0"/>
  <unicode hex="00AA"/>
  <outline>
    <contour>
      <point x="218.0" y="412.0" type="curve" smooth="yes"/>
      <point x="280.0" y="412.0"/>
      <point x="332.0" y="444.0"/>
      <point x="358.0" y="503.0" type="curve"/>
      <point x="322.5" y="508.0" type="line"/>
      <point x="322.5" y="420.0" type="line"/>
      <point x="427.5" y="420.0" type="line"/>
      <point x="427.5" y="780.0" type="line"/>
      <point x="322.5" y="780.0" type="line"/>
      <point x="322.5" y="692.0" type="line"/>
      <point x="358.0" y="697.0" type="line"/>
      <point x="332.0" y="756.0"/>
      <point x="280.0" y="788.0"/>
      <point x="218.0" y="788.0" type="curve" smooth="yes"/>
      <point x="119.0" y="788.0"/>
      <point x="38.0" y="704.0"/>
      <point x="38.0" y="600.0" type="curve" smooth="yes"/>
      <point x="38.0" y="496.0"/>
      <point x="118.0" y="412.0"/>
    </contour>
    <contour>
      <point x="234.0" y="505.0" type="curve" smooth="yes"/>
      <point x="182.0" y="505.0"/>
      <point x="140.5" y="547.5"/>
      <point x="140.5" y="600.0" type="curve" smooth="yes"/>
      <point x="140.5" y="652.5"/>
      <point x="182.0" y="695.0"/>
      <point x="234.0" y="695.0" type="curve" smooth="yes"/>
      <point x="286.0" y="695.0"/>
      <point x="327.5" y="652.5"/>
      <point x="327.5" y="600.0" type="curve" smooth="yes"/>
      <point x="327.5" y="547.5"/>
      <point x="286.0" y="505.0"/>
    </contour>
  </outline>
</glyph>
<glyph name="degree" format="2">
  <advance width="480.0"/>
  <unicode hex="00B0"/>
  <outline>
    <contour>
      <point x="240.0" y="543.0" type="curve" smooth="yes"/>
      <point x="345.5" y="543.0"/>
      <point x="430.5" y="625.5"/>
      <point x="430.5" y="727.5" type="curve" smooth="yes"/>
      <point x="430.5" y="829.5"/>
      <point x="345.5" y="912.0"/>
      <point x="240.0" y="912.0" type="curve" smooth="yes"/>
      <point x="134.5" y="912.0"/>
      <point x="49.5" y="829.5"/>
      <point x="49.5" y="727.5" type="curve" smooth="yes"/>
      <point x="49.5" y="625.5"/>
      <point x="134.5" y="543.0"/>
    </contour>
    <contour>
      <point x="240.0" y="636.0" type="curve" smooth="yes"/>
      <point x="187.0" y="636.0"/>
      <point x="146.0" y="677.0"/>
      <point x="146.0" y="727.5" type="curve" smooth="yes"/>
      <point x="146.0" y="778.0"/>
      <point x="187.0" y="819.0"/>
      <point x="240.0" y="819.0" type="curve" smooth="yes"/>
      <point x="292.0" y="819.0"/>
      <point x="334.0" y="778.0"/>
      <point x="334.0" y="727.5" type="curve" smooth="yes"/>
      <point x="334.0" y="677.0"/>
      <point x="292.0" y="636.0"/>
    </contour>
  </outline>
</glyph>
<glyph name="plusminus" format="2">
  <advance width="750.0"/>
  <unicode hex="00B1"/>
  <outline>
    <contour>
      <point x="81.0" y="454.0" type="line"/>
      <point x="669.0" y="454.0" type="line"/>
      <point x="669.0" y="566.0" type="line"/>
      <point x="81.0" y="566.0" type="line"/>
    </contour>
    <contour>
      <point x="81.0" y="62.0" type="line"/>
      <point x="669.0" y="62.0" type="line"/>
      <point x="669.0" y="166.0" type="line"/>
      <point x="81.0" y="166.0" type="line"/>
    </contour>
    <contour>
      <point x="316.0" y="235.0" type="line"/>
      <point x="434.0" y="235.0" type="line"/>
      <point x="434.0" y="804.0" type="line"/>
      <point x="316.0" y="804.0" type="line"/>
    </contour>
  </outline>
</glyph>
<glyph name="questiondown" format="2">
  <advance width="480.0"/>
  <unicode hex="00BF"/>
  <outline>
    <contour>
      <point x="251.5" y="-316.0" type="curve" smooth="yes"/>
      <point x="311.0" y="-316.0"/>
      <point x="361.5" y="-298.5"/>
      <point x="402.0" y="-268.5" type="curve"/>
      <point x="402.0" y="-116.5" type="line"/>
      <point x="372.0" y="-155.0"/>
      <point x="325.5" y="-188.0"/>
      <point x="268.0" y="-188.0" type="curve" smooth="yes"/>
      <point x="203.5" y="-188.0"/>
      <point x="159.0" y="-149.5"/>
      <point x="159.0" y="-86.5" type="curve" smooth="yes"/>
      <point x="159.0" y="26.0"/>
      <point x="297.0" y="89.5"/>
      <point x="297.0" y="284.0" type="curve"/>
      <point x="183.0" y="284.0" type="line"/>
      <point x="167.5" y="126.5"/>
      <point x="24.0" y="53.5"/>
      <point x="24.0" y="-102.0" type="curve" smooth="yes"/>
      <point x="24.0" y="-222.5"/>
      <point x="112.0" y="-316.0"/>
    </contour>
    <contour>
      <point x="240.0" y="435.0" type="curve" smooth="yes"/>
      <point x="290.5" y="435.0"/>
      <point x="330.0" y="474.5"/>
      <point x="330.0" y="525.0" type="curve" smooth="yes"/>
      <point x="330.0" y="575.5"/>
      <point x="290.5" y="615.0"/>
      <point x="240.0" y="615.0" type="curve" smooth="yes"/>
      <point x="189.0" y="615.0"/>
      <point x="150.0" y="575.5"/>
      <point x="150.0" y="525.0" type="curve" smooth="yes"/>
      <point x="150.0" y="474.5"/>
      <point x="189.0" y="435.0"/>
    </contour>
  </outline>
</glyph>
<glyph name="multiply" format="2">
  <advance width="750.0"/>
  <unicode hex="00D7"/>
  <outline>
    <contour>
      <point x="566.5" y="174.5" type="line"/>
      <point x="650.5" y="258.5" type="line"/>
      <point x="183.5" y="725.5" type="line"/>
      <point x="99.5" y="641.5" type="line"/>
    </contour>
    <contour>
      <point x="180.5" y="174.5" type="line"/>
      <point x="650.5" y="644.5" type="line"/>
      <point x="569.5" y="725.5" type="line"/>
      <point x="99.5" y="255.5" type="line"/>
    </contour>
  </outline>
</glyph>
<glyph name="eth" format="2">
  <advance width="730.0"/>
  <unicode hex="00F0"/>
  <anchor x="365.0" y="0.0" name="bottom"/>
  <anchor x="662.0" y="10.0" name="ogonek"/>
  <anchor x="365.0" y="600.0" name="top"/>
  <outline>
    <contour>
      <point x="366.0" y="-16.0" type="curve" smooth="yes"/>
      <point x="544.0" y="-16.0"/>
      <point x="685.0" y="122.0"/>
      <point x="685.0" y="310.0" type="curve" smooth="yes"/>
      <point x="685.0" y="399.5"/>
      <point x="654.0" y="491.0"/>
      <point x="587.0" y="594.5" type="curve" smooth="yes"/>
      <point x="536.0" y="672.0"/>
      <point x="415.0" y="829.0"/>
      <point x="302.0" y="960.0" type="curve"/>
      <point x="148.0" y="960.0" type="line"/>
      <point x="270.0" y="819.0"/>
      <point x="391.0" y="677.0"/>
      <point x="485.0" y="536.0" type="curve"/>
      <point x="517.0" y="539.0" type="line"/>
      <point x="471.5" y="589.5"/>
      <point x="411.5" y="610.0"/>
      <point x="344.5" y="610.0" type="curve" smooth="yes"/>
      <point x="179.5" y="610.0"/>
      <point x="45.0" y="472.0"/>
      <point x="45.0" y="301.0" type="curve" smooth="yes"/>
      <point x="45.0" y="125.0"/>
      <point x="187.0" y="-16.0"/>
    </contour>
    <contour>
      <point x="364.5" y="113.0" type="curve" smooth="yes"/>
      <point x="262.0" y="113.0"/>
      <point x="180.5" y="197.0"/>
      <point x="180.5" y="300.5" type="curve" smooth="yes"/>
      <point x="180.5" y="403.5"/>
      <point x="262.0" y="487.0"/>
      <point x="364.5" y="487.0" type="curve" smooth="yes"/>
      <point x="467.0" y="487.0"/>
      <point x="549.5" y="403.5"/>
      <point x="549.5" y="300.5" type="curve" smooth="yes"/>
      <point x="549.5" y="197.0"/>
      <point x="467.0" y="113.0"/>
    </contour>
    <contour>
      <point x="188.0" y="658.5" type="line"/>
      <point x="543.0" y="890.0" type="line"/>
      <point x="501.0" y="955.0" type="line"/>
      <point x="146.0" y="724.5" type="line"/>
    </contour>
  </outline>
</glyph>
<glyph name="OE" format="2">
  <advance width="1350.0"/>
  <unicode hex="0152"/>
  <anchor x="530.0" y="0.0" name="bottom"/>
  <anchor x="530.0" y="450.0" name="center"/>
  <anchor x="530.0" y="0.0" name="ogonek"/>
  <anchor x="530.0" y="900.0" name="top"/>
  <anchor x="530.0" y="510.0" name="top-vertical"/>
  <anchor x="60.0" y="900.0" name="topleft"/>
  <anchor x="1000.0" y="900.0" name="topright"/>
  <outline>
    <contour>
      <point x="520.5" y="-18.0" type="curve" smooth="yes"/>
      <point x="662.0" y="-18.0"/>
      <point x="783.5" y="42.5"/>
      <point x="851.0" y="139.5" type="curve"/>
      <point x="834.0" y="166.0" type="line"/>
      <point x="834.0" y="0.0" type="line"/>
      <point x="1293.0" y="0.0" type="line"/>
      <point x="1293.0" y="132.0" type="line"/>
      <point x="975.0" y="132.0" type="line"/>
      <point x="975.0" y="480.0" type="line"/>
      <point x="1223.0" y="480.0" type="line"/>
      <point x="1223.0" y="606.0" type="line"/>
      <point x="975.0" y="606.0" type="line"/>
      <point x="975.0" y="771.0" type="line"/>
      <point x="1293.0" y="771.0" type="line"/>
      <point x="1293.0" y="900.0" type="line"/>
      <point x="834.0" y="900.0" type="line"/>
      <point x="834.0" y="734.0" type="line"/>
      <point x="850.5" y="761.0" type="line"/>
      <point x="784.5" y="855.5"/>
      <point x="665.5" y="918.0"/>
      <point x="520.5" y="918.0" type="curve" smooth="yes"/>
      <point x="264.0" y="918.0"/>
      <point x="57.0" y="709.0"/>
      <point x="57.0" y="450.0" type="curve" smooth="yes"/>
      <point x="57.0" y="191.0"/>
      <point x="266.5" y="-18.0"/>
    </contour>
    <contour>
      <point x="530.0" y="123.0" type="curve" smooth="yes"/>
      <point x="350.0" y="123.0"/>
      <point x="210.0" y="269.0"/>
      <point x="210.0" y="450.0" type="curve" smooth="yes"/>
      <point x="210.0" y="631.0"/>
      <point x="350.0" y="777.0"/>
      <point x="530.0" y="777.0" type="curve" smooth="yes"/>
      <point x="710.0" y="777.0"/>
      <point x="850.0" y="631.0"/>
      <point x="850.0" y="450.0" type="curve" smooth="yes"/>
      <point x="850.0" y="269.0"/>
      <point x="710.0" y="123.0"/>
    </contour>
  </outline>
</glyph>
<glyph name="Schwa" format="2">
  <advance width="1050.0"/>
  <unicode hex="018F"/>
  <outline>
    <contour>
      <point x="520.0" y="-18.0" type="curve" smooth="yes"/>
      <point x="781.5" y="-18.0"/>
      <point x="993.0" y="191.0"/>
      <point x="993.0" y="450.0" type="curve" smooth="yes"/>
      <point x="993.0" y="709.0"/>
      <point x="781.5" y="918.0"/>
      <point x="520.0" y="918.0" type="curve" smooth="yes"/>
      <point x="394.5" y="918.0"/>
      <point x="283.0" y="872.0"/>
      <point x="199.0" y="796.0" type="curve"/>
      <point x="241.0" y="624.0" type="line"/>
      <point x="297.5" y="714.5"/>
      <point x="396.5" y="779.0"/>
      <point x="520.0" y="779.0" type="curve" smooth="yes"/>
      <point x="701.5" y="779.0"/>
      <point x="843.0" y="632.5"/>
      <point x="843.0" y="450.0" type="curve" smooth="yes"/>
      <point x="843.0" y="267.5"/>
      <point x="701.5" y="120.0"/>
      <point x="520.0" y="120.0" type="curve" smooth="yes"/>
      <point x="340.0" y="120.0"/>
      <point x="199.0" y="267.5"/>
      <point x="199.0" y="450.0" type="curve"/>
      <point x="145.0" y="396.0" type="line"/>
      <point x="754.0" y="396.0" type="line" smooth="yes"/>
      <point x="811.0" y="396.0"/>
      <point x="869.0" y="404.0"/>
      <point x="926.0" y="416.0" type="curve"/>
      <point x="926.0" y="502.0" type="line"/>
      <point x="869.0" y="514.0"/>
      <point x="811.0" y="522.0"/>
      <point x="754.0" y="522.0" type="curve" smooth="yes"/>
      <point x="49.0" y="522.0" type="line"/>
      <point x="49.0" y="452.5" type="line" smooth="yes"/>
      <point x="49.0" y="191.0"/>
      <point x="260.0" y="-18.0"/>
    </contour>
  </outline>
</glyph>
<glyph name="Ohorn" format="2">
  <advance width="1060.0"/>
  <unicode hex="01A0"/>
  <anchor x="530.0" y="0.0" name="bottom"/>
  <anchor x="530.0" y="0.0" name="ogonek"/>
  <anchor x="530.0" y="900.0" name="top"/>
  <outline>
    <contour>
      <point x="530.0" y="-18.0" type="curve" smooth="yes"/>
      <point x="791.5" y="-18.0"/>
      <point x="1003.0" y="191.0"/>
      <point x="1003.0" y="450.0" type="curve" smooth="yes"/>
      <point x="1003.0" y="709.0"/>
      <point x="791.5" y="918.0"/>
      <point x="530.0" y="918.0" type="curve" smooth="yes"/>
      <point x="268.5" y="918.0"/>
      <point x="57.0" y="709.0"/>
      <point x="57.0" y="450.0" type="curve" smooth="yes"/>
      <point x="57.0" y="191.0"/>
      <point x="268.5" y="-18.0"/>
    </contour>
    <contour>
      <point x="530.0" y="123.0" type="curve" smooth="yes"/>
      <point x="350.0" y="123.0"/>
      <point x="210.0" y="269.0"/>
      <point x="210.0" y="450.0" type="curve" smooth="yes"/>
      <point x="210.0" y="631.0"/>
      <point x="350.0" y="777.0"/>
      <point x="530.0" y="777.0" type="curve" smooth="yes"/>
      <point x="710.0" y="777.0"/>
      <point x="850.0" y="631.0"/>
      <point x="850.0" y="450.0" type="curve" smooth="yes"/>
      <point x="850.0" y="269.0"/>
      <point x="710.0" y="123.0"/>
    </contour>
    <contour>
      <point x="853.0" y="689.0" type="line"/>
      <point x="946.0" y="689.0"/>
      <point x="1018.0" y="752.5"/>
      <point x="1018.0" y="868.0" type="curve" smooth="yes"/>
      <point x="1018.0" y="897.0"/>
      <point x="1013.0" y="928.0"/>
      <point x="994.0" y="960.0" type="curve"/>
      <point x="868.0" y="960.0" type="line"/>
      <point x="887.0" y="927.0"/>
      <point x="892.0" y="892.0"/>
      <point x="892.0" y="868.0" type="curve" smooth="yes"/>
      <point x="892.0" y="816.5"/>
      <point x="866.5" y="782.5"/>
      <point x="825.5" y="778.0" type="curve"/>
    </contour>
  </outline>
</glyph>
<glyph name="ohorn" format="2">
  <advance width="770.0"/>
  <unicode hex="01A1"/>
  <anchor x="365.0" y="0.0" name="bottom"/>
  <anchor x="365.0" y="600.0" name="top"/>
  <outline>
    <contour>
      <point x="365.0" y="-16.0" type="curve" smooth="yes"/>
      <point x="542.0" y="-16.0"/>
      <point x="685.0" y="125.0"/>
      <point x="685.0" y="300.0" type="curve" smooth="yes"/>
      <point x="685.0" y="475.0"/>
      <point x="542.0" y="616.0"/>
      <point x="365.0" y="616.0" type="curve" smooth="yes"/>
      <point x="188.0" y="616.0"/>
      <point x="45.0" y="475.0"/>
      <point x="45.0" y="300.0" type="curve" smooth="yes"/>
      <point x="45.0" y="125.0"/>
      <point x="188.0" y="-16.0"/>
    </contour>
    <contour>
      <point x="365.0" y="113.0" type="curve" smooth="yes"/>
      <point x="262.0" y="113.0"/>
      <point x="180.5" y="196.5"/>
      <point x="180.5" y="300.0" type="curve" smooth="yes"/>
      <point x="180.5" y="403.5"/>
      <point x="262.0" y="487.0"/>
      <point x="365.0" y="487.0" type="curve" smooth="yes"/>
      <point x="467.0" y="487.0"/>
      <point x="549.5" y="403.5"/>
      <point x="549.5" y="300.0" type="curve" smooth="yes"/>
      <point x="549.5" y="196.5"/>
      <point x="467.0" y="113.0"/>
    </contour>
    <contour>
      <point x="606.0" y="398.0" type="line"/>
      <point x="685.0" y="398.0"/>
      <point x="756.0" y="458.0"/>
      <point x="756.0" y="568.0" type="curve" smooth="yes"/>
      <point x="756.0" y="597.0"/>
      <point x="751.0" y="628.0"/>
      <point x="732.0" y="660.0" type="curve"/>
      <point x="615.0" y="660.0" type="line"/>
      <point x="634.0" y="627.0"/>
      <point x="639.0" y="592.0"/>
      <point x="639.0" y="568.0" type="curve" smooth="yes"/>
      <point x="639.0" y="503.0"/>
      <point x="602.0" y="476.0"/>
      <point x="558.0" y="476.0" type="curve"/>
    </contour>
  </outline>
</glyph>
<glyph name="Uhorn" format="2">
  <advance width="930.0"/>
  <unicode hex="01AF"/>
  <anchor x="400.0" y="0.0" name="bottom"/>
  <anchor x="400.0" y="900.0" name="top"/>
  <outline>
    <contour>
      <point x="400.0" y="-16.5" type="curve" smooth="yes"/>
      <point x="582.0" y="-16.5"/>
      <point x="710.0" y="105.5"/>
      <point x="710.0" y="296.5" type="curve" smooth="yes"/>
      <point x="710.0" y="740.5" type="line"/>
      <point x="701.0" y="745.0" type="line"/>
      <point x="701.0" y="900.0" type="line"/>
      <point x="562.5" y="900.0" type="line"/>
      <point x="562.5" y="294.5" type="line" smooth="yes"/>
      <point x="562.5" y="190.5"/>
      <point x="494.5" y="121.5"/>
      <point x="401.5" y="121.5" type="curve" smooth="yes"/>
      <point x="307.5" y="121.5"/>
      <point x="240.5" y="191.5"/>
      <point x="240.5" y="299.5" type="curve" smooth="yes"/>
      <point x="240.5" y="900.0" type="line"/>
      <point x="90.0" y="900.0" type="line"/>
      <point x="90.0" y="293.0" type="line" smooth="yes"/>
      <point x="90.0" y="105.0"/>
      <point x="220.0" y="-16.5"/>
    </contour>
    <contour>
      <point x="757.5" y="689.0" type="curve" smooth="yes"/>
      <point x="839.5" y="689.0"/>
      <point x="916.0" y="752.0"/>
      <point x="916.0" y="867.0" type="curve" smooth="yes"/>
      <point x="916.0" y="896.5"/>
      <point x="911.0" y="927.5"/>
      <point x="892.0" y="960.0" type="curve"/>
      <point x="769.0" y="960.0" type="line"/>
      <point x="788.0" y="927.0"/>
      <point x="793.0" y="892.0"/>
      <point x="793.0" y="868.0" type="curve" smooth="yes"/>
      <point x="793.0" y="816.0"/>
      <point x="764.0" y="785.0"/>
      <point x="723.5" y="785.0" type="curve" smooth="yes"/>
      <point x="695.0" y="785.0"/>
      <point x="669.0" y="799.5"/>
      <point x="657.0" y="828.5" type="curve"/>
      <point x="657.0" y="725.5" type="line"/>
      <point x="684.0" y="701.5"/>
      <point x="720.0" y="689.0"/>
    </contour>
  </outline>
</glyph>
<glyph name="Ezh" format="2">
  <advance width="660.0"/>
  <unicode hex="01B7"/>
  <anchor x="302.0" y="0.0" name="bottom"/>
  <anchor x="321.5" y="900.0" name="top"/>
  <outline>
    <contour>
      <point x="299.0" y="-16.0" type="curve" smooth="yes"/>
      <point x="476.0" y="-16.0"/>
      <point x="624.0" y="121.5"/>
      <point x="624.0" y="299.5" type="curve" smooth="yes"/>
      <point x="624.0" y="456.0"/>
      <point x="509.0" y="576.5"/>
      <point x="368.5" y="599.5" type="curve"/>
      <point x="378.5" y="538.0" type="line"/>
      <point x="572.5" y="900.0" type="line"/>
      <point x="78.0" y="900.0" type="line"/>
      <point x="78.0" y="771.0" type="line"/>
      <point x="412.0" y="771.0" type="line"/>
      <point x="382.0" y="817.0" type="line"/>
      <point x="169.5" y="404.5" type="line"/>
      <point x="163.5" y="435.0" type="line"/>
      <point x="204.5" y="463.5"/>
      <point x="247.5" y="481.0"/>
      <point x="298.0" y="481.0" type="curve" smooth="yes"/>
      <point x="404.0" y="481.0"/>
      <point x="482.0" y="400.0"/>
      <point x="482.0" y="300.5" type="curve" smooth="yes"/>
      <point x="482.0" y="199.0"/>
      <point x="402.0" y="119.0"/>
      <point x="300.0" y="119.0" type="curve" smooth="yes"/>
      <point x="190.5" y="119.0"/>
      <point x="104.5" y="211.0"/>
      <point x="102.5" y="320.5" type="curve"/>
      <point x="124.0" y="328.0" type="line"/>
      <point x="-0.5" y="81.0" type="line"/>
      <point x="11.5" y="156.0" type="line"/>
      <point x="63.0" y="53.0"/>
      <point x="172.5" y="-16.0"/>
    </contour>
  </outline>
</glyph>
<glyph name="ezh" format="2">
  <advance width="660.0"/>
  <unicode hex="0292"/>
  <anchor x="303.5" y="-330.0" name="bottom"/>
  <anchor x="321.5" y="600.0" name="top"/>
  <outline>
    <contour>
      <point x="296.0" y="-316.0" type="curve" smooth="yes"/>
      <point x="471.5" y="-316.0"/>
      <point x="618.0" y="-180.5"/>
      <point x="618.0" y="-5.0" type="curve" smooth="yes"/>
      <point x="618.0" y="136.5"/>
      <point x="522.0" y="248.5"/>
      <point x="398.0" y="283.0" type="curve"/>
      <point x="568.0" y="600.0" type="line"/>
      <point x="88.0" y="600.0" type="line"/>
      <point x="88.0" y="474.0" type="line"/>
      <point x="409.0" y="474.0" type="line"/>
      <point x="379.0" y="517.0" type="line"/>
      <point x="190.0" y="150.0" type="line"/>
      <point x="222.5" y="167.5"/>
      <point x="256.5" y="178.0"/>
      <point x="295.0" y="178.0" type="curve" smooth="yes"/>
      <point x="401.0" y="178.0"/>
      <point x="479.5" y="97.0"/>
      <point x="479.5" y="-2.5" type="curve" smooth="yes"/>
      <point x="479.5" y="-104.0"/>
      <point x="399.0" y="-184.0"/>
      <point x="297.0" y="-184.0" type="curve" smooth="yes"/>
      <point x="199.5" y="-184.0"/>
      <point x="121.0" y="-111.5"/>
      <point x="103.5" y="-18.0" type="curve"/>
      <point x="25.0" y="-173.0" type="line"/>
      <point x="81.5" y="-260.0"/>
      <point x="181.5" y="-316.0"/>
    </contour>
  </outline>
</glyph>
<glyph name="acutecomb" format="2">
  <unicode hex="0301"/>
  <anchor x="298.0" y="600.0" name="_top"/>
  <outline>
    <contour>
      <point x="238.0" y="684.0" type="line"/>
      <point x="352.0" y="684.0" type="line"/>
      <point x="486.5" y="876.0" type="line"/>
      <point x="329.0" y="876.0" type="line"/>
    </contour>
  </outline>
</glyph>
<glyph name="brevecomb" format="2">
  <unicode hex="0306"/>
  <anchor x="360.0" y="600.0" name="_top"/>
  <anchor x="360.0" y="849.0" name="top"/>
  <outline>
    <contour>
      <point x="360.0" y="669.0" type="curve" smooth="yes"/>
      <point x="468.0" y="669.0"/>
      <point x="552.0" y="748.0"/>
      <point x="552.0" y="855.0" type="curve"/>
      <point x="445.0" y="855.0" type="line"/>
      <point x="445.0" y="808.0"/>
      <point x="405.5" y="770.0"/>
      <point x="360.0" y="770.0" type="curve" smooth="yes"/>
      <point x="314.5" y="770.0"/>
      <point x="275.0" y="808.0"/>
      <point x="275.0" y="855.0" type="curve"/>
      <point x="168.0" y="855.0" type="line"/>
      <point x="168.0" y="749.5"/>
      <point x="253.0" y="669.0"/>
    </contour>
  </outline>
</glyph>
<glyph name="dotaccentcomb" format="2">
  <unicode hex="0307"/>
  <anchor x="360.0" y="780.0" name="_centerright"/>
  <anchor x="360.0" y="600.0" name="_top"/>
  <outline>
    <contour>
      <point x="360.0" y="697.5" type="curve" smooth="yes"/>
      <point x="407.0" y="697.5"/>
      <point x="442.5" y="734.0"/>
      <point x="442.5" y="780.0" type="curve" smooth="yes"/>
      <point x="442.5" y="827.0"/>
      <point x="407.0" y="862.5"/>
      <point x="360.0" y="862.5" type="curve" smooth="yes"/>
      <point x="314.0" y="862.5"/>
      <point x="277.5" y="827.0"/>
      <point x="277.5" y="780.0" type="curve" smooth="yes"/>
      <point x="277.5" y="734.0"/>
      <point x="314.0" y="697.5"/>
    </contour>
  </outline>
</glyph>
<glyph name="hungarumlautcomb" format="2">
  <unicode hex="030B"/>
  <anchor x="310.0" y="600.0" name="_top"/>
  <outline>
    <contour>
      <point x="201.0" y="684.0" type="line"/>
      <point x="300.5" y="780.0" type="line"/>
      <point x="261.0" y="870.0" type="line"/>
      <point x="170.5" y="774.0" type="line"/>
    </contour>
    <contour>
      <point x="435.0" y="684.0" type="line"/>
      <point x="534.5" y="780.0" type="line"/>
      <point x="495.0" y="870.0" type="line"/>
      <point x="404.5" y="774.0" type="line"/>
    </contour>
  </outline>
</glyph>
<glyph name="caroncomb" format="2">
  <unicode hex="030C"/>
  <anchor x="360.0" y="600.0" name="_top"/>
  <outline>
    <contour>
      <point x="360.0" y="675.0" type="line"/>
      <point x="564.0" y="906.0" type="line"/>
      <point x="430.0" y="906.0" type="line"/>
      <point x="405.0" y="880.0"/>
      <point x="386.5" y="854.5"/>
      <point x="362.0" y="819.5" type="curve"/>
      <point x="337.5" y="854.5"/>
      <point x="319.0" y="880.0"/>
      <point x="294.0" y="906.0" type="curve"/>
      <point x="156.0" y="906.0" type="line"/>
    </contour>
  </outline>
</glyph>
<glyph name="cedillacomb" format="2">
  <unicode hex="0327"/>
  <anchor x="429.0" y="0.0" name="_bottom"/>
  <anchor x="272.0" y="-180.0" name="bottom"/>
  <outline>
    <contour>
      <point x="176.0" y="-186.0" type="line"/>
      <point x="355.0" y="-186.0" type="line"/>
      <point x="493.5" y="0.0" type="line"/>
      <point x="364.5" y="0.0" type="line"/>
    </contour>
  </outline>
</glyph>
<glyph name="slashlongcomb" format="2">
  <unicode hex="0338"/>
  <anchor x="278.0" y="300.0" name="_center"/>
  <outline>
    <contour>
      <point x="65.0" y="-21.5" type="line"/>
      <point x="554.0" y="560.5" type="line"/>
      <point x="485.0" y="620.5" type="line"/>
      <point x="-4.0" y="38.5" type="line"/>
    </contour>
  </outline>
</glyph>
<glyph name="emdash" format="2">
  <advance width="1440.0"/>
  <unicode hex="2014"/>
  <outline>
    <contour>
      <point x="60.0" y="237.0" type="line"/>
      <point x="1380.0" y="237.0" type="line"/>
      <point x="1380.0" y="363.0" type="line"/>
      <point x="60.0" y="363.0" type="line"/>
    </contour>
  </outline>
</glyph>
<glyph name="daggerdbl" format="2">
  <advance width="600.0"/>
  <unicode hex="2021"/>
  <outline>
    <contour>
      <point x="232.5" y="0.0" type="line"/>
      <point x="367.5" y="0.0" type="line"/>
      <point x="353.5" y="222.5" type="line"/>
      <point x="534.0" y="213.5" type="line"/>
      <point x="534.0" y="326.0" type="line"/>
      <point x="307.5" y="317.5" type="line"/>
      <point x="353.5" y="240.0" type="line"/>
      <point x="360.0" y="450.0" type="line"/>
      <point x="354.0" y="660.0" type="line"/>
      <point x="307.5" y="582.5" type="line"/>
      <point x="534.0" y="574.0" type="line"/>
      <point x="534.0" y="686.5" type="line"/>
      <point x="354.0" y="677.5" type="line"/>
      <point x="367.5" y="900.0" type="line"/>
      <point x="232.5" y="900.0" type="line"/>
      <point x="246.5" y="677.5" type="line"/>
      <point x="66.0" y="686.5" type="line"/>
      <point x="66.0" y="574.0" type="line"/>
      <point x="292.5" y="582.5" type="line"/>
      <point x="246.5" y="660.0" type="line"/>
      <point x="240.0" y="450.0" type="line"/>
      <point x="246.0" y="240.0" type="line"/>
      <point x="292.5" y="317.5" type="line"/>
      <point x="66.0" y="326.0" type="line"/>
      <point x="66.0" y="213.5" type="line"/>
      <point x="246.0" y="222.5" type="line"/>
    </contour>
  </outline>
</glyph>
<glyph name="euro" format="2">
  <advance width="750.0"/>
  <unicode hex="20AC"/>
  <outline>
    <contour>
      <point x="499.0" y="-16.0" type="curve" smooth="yes"/>
      <point x="574.0" y="-16.0"/>
      <point x="642.5" y="13.5"/>
      <point x="696.0" y="65.5" type="curve"/>
      <point x="656.5" y="223.5" type="line"/>
      <point x="623.5" y="161.0"/>
      <point x="570.0" y="113.0"/>
      <point x="502.5" y="113.0" type="curve" smooth="yes"/>
      <point x="375.5" y="113.0"/>
      <point x="315.5" y="269.0"/>
      <point x="315.5" y="450.0" type="curve" smooth="yes"/>
      <point x="315.5" y="631.0"/>
      <point x="375.5" y="787.0"/>
      <point x="502.5" y="787.0" type="curve" smooth="yes"/>
      <point x="569.5" y="787.0"/>
      <point x="623.5" y="738.5"/>
      <point x="656.5" y="677.0" type="curve"/>
      <point x="696.0" y="834.5" type="line"/>
      <point x="642.5" y="886.5"/>
      <point x="574.0" y="916.0"/>
      <point x="499.0" y="916.0" type="curve" smooth="yes"/>
      <point x="294.0" y="916.0"/>
      <point x="174.5" y="703.5"/>
      <point x="174.5" y="450.0" type="curve" smooth="yes"/>
      <point x="174.5" y="196.5"/>
      <point x="294.0" y="-16.0"/>
    </contour>
    <contour>
      <point x="81.0" y="306.0" type="line"/>
      <point x="549.0" y="306.0" type="line"/>
      <point x="549.0" y="402.0" type="line"/>
      <point x="81.0" y="402.0" type="line"/>
    </contour>
    <contour>
      <point x="81.0" y="498.0" type="line"/>
      <point x="549.0" y="498.0" type="line"/>
      <point x="549.0" y="594.0" type="line"/>
      <point x="81.0" y="594.0" type="line"/>
    </contour>
  </outline>
</glyph>
<glyph name="careof" format="2">
  <advance width="960.0"/>
  <unicode hex="2105"/>
  <outline>
    <contour>
      <point x="92.5" y="0.0" type="line"/>
      <point x="208.5" y="0.0" type="line"/>
      <point x="827.0" y="900.0" type="line"/>
      <point x="711.0" y="900.0" type="line"/>
    </contour>
    <contour>
      <point x="720.0" y="-15.0" type="curve" smooth="yes"/>
      <point x="832.0" y="-15.0"/>
      <point x="922.0" y="72.5"/>
      <point x="922.0" y="180.0" type="curve" smooth="yes"/>
      <point x="922.0" y="287.5"/>
      <point x="832.0" y="375.0"/>
      <point x="720.0" y="375.0" type="curve" smooth="yes"/>
      <point x="608.0" y="375.0"/>
      <point x="518.0" y="287.5"/>
      <point x="518.0" y="180.0" type="curve" smooth="yes"/>
      <point x="518.0" y="72.5"/>
      <point x="608.0" y="-15.0"/>
    </contour>
    <contour>
      <point x="720.0" y="84.0" type="curve" smooth="yes"/>
      <point x="664.5" y="84.0"/>
      <point x="621.5" y="127.0"/>
      <point x="621.5" y="180.0" type="curve" smooth="yes"/>
      <point x="621.5" y="233.0"/>
      <point x="664.5" y="276.0"/>
      <point x="720.0" y="276.0" type="curve" smooth="yes"/>
      <point x="774.5" y="276.0"/>
      <point x="818.5" y="233.0"/>
      <point x="818.5" y="180.0" type="curve" smooth="yes"/>
      <point x="818.5" y="127.0"/>
      <point x="774.5" y="84.0"/>
    </contour>
    <contour>
      <point x="240.0" y="525.0" type="curve" smooth="yes"/>
      <point x="281.0" y="525.0"/>
      <point x="319.0" y="537.0"/>
      <point x="351.0" y="557.0" type="curve"/>
      <point x="326.0" y="656.5" type="line"/>
      <point x="307.0" y="636.5"/>
      <point x="280.5" y="624.0"/>
      <point x="246.0" y="624.0" type="curve" smooth="yes"/>
      <point x="187.0" y="624.0"/>
      <point x="144.5" y="667.0"/>
      <point x="144.5" y="720.0" type="curve" smooth="yes"/>
      <point x="144.5" y="773.0"/>
      <point x="187.0" y="816.0"/>
      <point x="246.0" y="816.0" type="curve" smooth="yes"/>
      <point x="280.5" y="816.0"/>
      <point x="307.5" y="803.5"/>
      <point x="326.0" y="784.0" type="curve"/>
      <point x="351.0" y="883.0" type="line"/>
      <point x="319.0" y="903.0"/>
      <point x="281.0" y="915.0"/>
      <point x="240.0" y="915.0" type="curve" smooth="yes"/>
      <point x="128.0" y="915.0"/>
      <point x="38.0" y="827.5"/>
      <point x="38.0" y="720.0" type="curve" smooth="yes"/>
      <point x="38.0" y="612.5"/>
      <point x="128.0" y="525.0"/>
    </contour>
  </outline>
</glyph>
<glyph name="dek" format="2">
  <advance width="750.0"/>
  <unicode hex="218A"/>
  <outline>
    <contour>
      <point x="383.0" y="-16.0" type="curve" smooth="yes"/>
      <point x="539.0" y="-16.0"/>
      <point x="662.5" y="106.0"/>
      <point x="662.5" y="254.0" type="curve" smooth="yes"/>
      <point x="662.5" y="296.0"/>
      <point x="652.0" y="335.0"/>
      <point x="631.0" y="374.0" type="curve"/>
      <point x="464.5" y="374.0" type="line"/>
      <point x="504.5" y="341.0"/>
      <point x="524.5" y="299.5"/>
      <point x="524.5" y="254.5" type="curve" smooth="yes"/>
      <point x="524.5" y="177.5"/>
      <point x="463.5" y="116.0"/>
      <point x="384.0" y="116.0" type="curve" smooth="yes"/>
      <point x="304.5" y="116.0"/>
      <point x="242.5" y="177.5"/>
      <point x="242.5" y="254.5" type="curve" smooth="yes"/>
      <point x="242.5" y="283.5"/>
      <point x="252.0" y="315.0"/>
      <point x="284.0" y="363.0" type="curve" smooth="yes"/>
      <point x="647.5" y="900.0" type="line"/>
      <point x="87.5" y="900.0" type="line"/>
      <point x="87.5" y="768.0" type="line"/>
      <point x="480.0" y="768.0" type="line"/>
      <point x="439.0" y="822.5" type="line"/>
      <point x="169.5" y="436.5" type="line" smooth="yes"/>
      <point x="121.5" y="367.5"/>
      <point x="101.5" y="315.0"/>
      <point x="101.5" y="254.5" type="curve" smooth="yes"/>
      <point x="101.5" y="103.5"/>
      <point x="229.5" y="-16.0"/>
    </contour>
  </outline>
</glyph>
<glyph name="notequal" format="2">
  <advance width="750.0"/>
  <unicode hex="2260"/>
  <outline>
    <contour>
      <point x="177.0" y="150.0" type="line"/>
      <point x="281.0" y="150.0" type="line"/>
      <point x="573.0" y="750.0" type="line"/>
      <point x="469.0" y="750.0" type="line"/>
    </contour>
    <contour>
      <point x="85.0" y="274.0" type="line"/>
      <point x="665.0" y="274.0" type="line"/>
      <point x="665.0" y="388.0" type="line"/>
      <point x="85.0" y="388.0" type="line"/>
    </contour>
    <contour>
      <point x="85.0" y="512.0" type="line"/>
      <point x="665.0" y="512.0" type="line"/>
      <point x="665.0" y="626.0" type="line"/>
      <point x="85.0" y="626.0" type="line"/>
    </contour>
  </outline>
</glyph>
<glyph name="lessequal" format="2">
  <advance width="750.0"/>
  <unicode hex="2264"/>
  <outline>
    <contour>
      <point x="669.0" y="203.0" type="line"/>
      <point x="669.0" y="330.5" type="line"/>
      <point x="399.0" y="460.0" type="line" smooth="yes"/>
      <point x="362.0" y="478.0"/>
      <point x="319.0" y="495.0"/>
      <point x="278.0" y="511.0" type="curve"/>
      <point x="319.0" y="528.0"/>
      <point x="362.0" y="545.0"/>
      <point x="399.0" y="563.0" type="curve" smooth="yes"/>
      <point x="669.0" y="693.5" type="line"/>
      <point x="669.0" y="819.0" type="line"/>
      <point x="42.0" y="511.0" type="line"/>
    </contour>
    <contour>
      <point x="81.0" y="62.0" type="line"/>
      <point x="669.0" y="62.0" type="line"/>
      <point x="669.0" y="166.0" type="line"/>
      <point x="81.0" y="166.0" type="line"/>
    </contour>
  </outline>
</glyph>
<glyph name="a.ss02" format="2">
  <advance width="680.0"/>
  <anchor x="328.0" y="0.0" name="bottom"/>
  <anchor x="551.0" y="0.0" name="ogonek"/>
  <anchor x="337.0" y="600.0" name="top"/>
  <outline>
    <contour>
      <point x="273.0" y="-11.0" type="curve" smooth="yes"/>
      <point x="358.0" y="-11.0"/>
      <point x="434.0" y="21.5"/>
      <point x="486.0" y="85.0" type="curve"/>
      <point x="486.0" y="0.0" type="line"/>
      <point x="611.0" y="0.0" type="line"/>
      <point x="611.0" y="374.0" type="line" smooth="yes"/>
      <point x="611.0" y="520.5"/>
      <point x="494.0" y="614.0"/>
      <point x="326.0" y="614.0" type="curve" smooth="yes"/>
      <point x="237.5" y="614.0"/>
      <point x="154.5" y="588.0"/>
      <point x="91.0" y="548.0" type="curve"/>
      <point x="122.5" y="418.0" type="line"/>
      <point x="169.5" y="465.5"/>
      <point x="239.5" y="497.0"/>
      <point x="315.0" y="497.0" type="curve" smooth="yes"/>
      <point x="422.0" y="497.0"/>
      <point x="486.0" y="433.0"/>
      <point x="486.0" y="354.0" type="curve" smooth="yes"/>
      <point x="486.0" y="340.5" type="line"/>
      <point x="432.0" y="367.0"/>
      <point x="373.0" y="381.0"/>
      <point x="307.5" y="381.0" type="curve" smooth="yes"/>
      <point x="153.5" y="381.0"/>
      <point x="45.0" y="304.5"/>
      <point x="45.0" y="182.5" type="curve" smooth="yes"/>
      <point x="45.0" y="67.5"/>
      <point x="141.0" y="-11.0"/>
    </contour>
    <contour>
      <point x="295.0" y="100.0" type="curve" smooth="yes"/>
      <point x="222.0" y="100.0"/>
      <point x="180.0" y="136.5"/>
      <point x="180.0" y="185.5" type="curve" smooth="yes"/>
      <point x="180.0" y="241.5"/>
      <point x="235.5" y="273.0"/>
      <point x="320.5" y="273.0" type="curve" smooth="yes"/>
      <point x="376.5" y="273.0"/>
      <point x="439.0" y="259.5"/>
      <point x="486.0" y="238.5" type="curve"/>
      <point x="476.5" y="158.0"/>
      <point x="388.0" y="100.0"/>
    </contour>
  </outline>
</glyph>
<glyph name="acutecomb.case" format="2">
  <anchor x="270.0" y="900.0" name="_top"/>
  <anchor x="432.0" y="1170.0" name="top"/>
  <outline>
    <contour>
      <point x="198.5" y="984.0" type="line"/>
      <point x="333.5" y="984.0" type="line"/>
      <point x="526.5" y="1176.0" type="line"/>
      <point x="346.5" y="1176.0" type="line"/>
    </contour>
  </outline>
</glyph>
<glyph name="braceright.titl" format="2">
  <advance width="480.0"/>
  <outline>
    <contour>
      <point x="73.0" y="-186.0" type="line"/>
      <point x="220.5" y="-186.0"/>
      <point x="322.0" y="-107.5"/>
      <point x="322.0" y="61.5" type="curve" smooth="yes"/>
      <point x="322.0" y="120.5"/>
      <point x="309.5" y="196.0"/>
      <point x="309.5" y="240.0" type="curve" smooth="yes"/>
      <point x="309.5" y="322.5"/>
      <point x="352.5" y="354.0"/>
      <point x="441.0" y="390.0" type="curve"/>
      <point x="352.5" y="426.0"/>
      <point x="309.5" y="457.5"/>
      <point x="309.5" y="540.0" type="curve" smooth="yes"/>
      <point x="309.5" y="584.0"/>
      <point x="322.0" y="659.5"/>
      <point x="322.0" y="718.5" type="curve" smooth="yes"/>
      <point x="322.0" y="887.5"/>
      <point x="220.5" y="966.0"/>
      <point x="73.0" y="966.0" type="curve"/>
      <point x="60.0" y="909.5" type="line"/>
      <point x="184.5" y="909.5"/>
      <point x="255.0" y="857.5"/>
      <point x="255.0" y="709.0" type="curve" smooth="yes"/>
      <point x="255.0" y="648.0"/>
      <point x="242.0" y="579.0"/>
      <point x="242.0" y="535.5" type="curve" smooth="yes"/>
      <point x="242.0" y="445.5"/>
      <point x="297.5" y="382.0"/>
      <point x="396.0" y="382.0" type="curve"/>
      <point x="396.0" y="398.0" type="line"/>
      <point x="297.5" y="398.0"/>
      <point x="242.0" y="334.5"/>
      <point x="242.0" y="244.5" type="curve" smooth="yes"/>
      <point x="242.0" y="201.0"/>
      <point x="255.0" y="132.0"/>
      <point x="255.0" y="71.0" type="curve" smooth="yes"/>
      <point x="255.0" y="-77.5"/>
      <point x="183.5" y="-129.5"/>
      <point x="60.0" y="-129.5" type="curve"/>
    </contour>
  </outline>
</glyph>
<glyph name="brevecomb_gravecomb" format="2">
  <anchor x="360.0" y="600.0" name="_top"/>
  <outline>
    <contour>
      <point x="360.0" y="669.0" type="curve" smooth="yes"/>
      <point x="467.5" y="669.0"/>
      <point x="552.0" y="748.5"/>
      <point x="552.0" y="855.0" type="curve"/>
      <point x="453.0" y="855.0" type="line"/>
      <point x="453.0" y="803.5"/>
      <point x="409.5" y="762.0"/>
      <point x="360.0" y="762.0" type="curve" smooth="yes"/>
      <point x="310.5" y="762.0"/>
      <point x="267.0" y="803.5"/>
      <point x="267.0" y="855.0" type="curve"/>
      <point x="168.0" y="855.0" type="line"/>
      <point x="168.0" y="749.0"/>
      <point x="252.5" y="669.0"/>
    </contour>
    <contour>
      <point x="319.5" y="879.0" type="line"/>
      <point x="424.5" y="879.0" type="line"/>
      <point x="352.0" y="1029.0" type="line"/>
      <point x="212.0" y="1029.0" type="line"/>
    </contour>
  </outline>
</glyph>
<glyph name="brokenbar.titl" format="2">
  <advance width="480.0"/>
  <outline>
    <contour>
      <point x="207.5" y="-180.0" type="line"/>
      <point x="272.5" y="-180.0" type="line"/>
      <point x="272.5" y="240.0" type="line"/>
      <point x="207.5" y="240.0" type="line"/>
    </contour>
    <contour>
      <point x="207.5" y="540.0" type="line"/>
      <point x="272.5" y="540.0" type="line"/>
      <point x="272.5" y="960.0" type="line"/>
      <point x="207.5" y="960.0" type="line"/>
    </contour>
  </outline>
</glyph>
<glyph name="circumflexcomb_tildecomb" format="2">
  <anchor x="360.0" y="600.0" name="_top"/>
  <outline>
    <contour>
      <point x="156.0" y="684.0" type="line"/>
      <point x="290.0" y="684.0" type="line"/>
      <point x="315.0" y="707.0"/>
      <point x="333.5" y="729.5"/>
      <point x="358.0" y="760.5" type="curve"/>
      <point x="382.5" y="729.5"/>
      <point x="401.0" y="707.0"/>
      <point x="426.0" y="684.0" type="curve"/>
      <point x="564.0" y="684.0" type="line"/>
      <point x="360.0" y="900.0" type="line"/>
    </contour>
    <contour>
      <point x="204.5" y="894.0" type="line"/>
      <point x="220.5" y="933.5"/>
      <point x="246.5" y="956.5"/>
      <point x="283.5" y="956.5" type="curve" smooth="yes"/>
      <point x="333.0" y="956.5"/>
      <point x="380.0" y="912.0"/>
      <point x="439.0" y="912.0" type="curve" smooth="yes"/>
      <point x="485.0" y="912.0"/>
      <point x="524.5" y="937.0"/>
      <point x="547.5" y="982.5" type="curve"/>
      <point x="515.5" y="1074.0" type="line"/>
      <point x="499.5" y="1035.0"/>
      <point x="473.5" y="1011.5"/>
      <point x="436.5" y="1011.5" type="curve" smooth="yes"/>
      <point x="387.0" y="1011.5"/>
      <point x="340.0" y="1056.5"/>
      <point x="281.0" y="1056.5" type="curve" smooth="yes"/>
      <point x="235.0" y="1056.5"/>
      <point x="195.5" y="1031.0"/>
      <point x="172.5" y="985.5" type="curve"/>
    </contour>
  </outline>
</glyph>
<glyph name="dieresiscomb.Adieresis.case" format="2">
  <anchor x="420.0" y="900.0" name="_top"/>
  <anchor x="420.0" y="1071.0" name="top"/>
  <outline>
    <contour>
      <point x="588.0" y="912.0" type="curve" smooth="yes"/>
      <point x="636.0" y="912.0"/>
      <point x="672.0" y="948.0"/>
      <point x="672.0" y="996.0" type="curve" smooth="yes"/>
      <point x="672.0" y="1044.0"/>
      <point x="636.0" y="1080.0"/>
      <point x="588.0" y="1080.0" type="curve" smooth="yes"/>
      <point x="540.0" y="1080.0"/>
      <point x="504.0" y="1044.0"/>
      <point x="504.0" y="996.0" type="curve" smooth="yes"/>
      <point x="504.0" y="948.0"/>
      <point x="540.0" y="912.0"/>
    </contour>
    <contour>
      <point x="252.0" y="912.0" type="curve" smooth="yes"/>
      <point x="300.0" y="912.0"/>
      <point x="336.0" y="948.0"/>
      <point x="336.0" y="996.0" type="curve" smooth="yes"/>
      <point x="336.0" y="1044.0"/>
      <point x="300.0" y="1080.0"/>
      <point x="252.0" y="1080.0" type="curve" smooth="yes"/>
      <point x="204.0" y="1080.0"/>
      <point x="168.0" y="1044.0"/>
      <point x="168.0" y="996.0" type="curve" smooth="yes"/>
      <point x="168.0" y="948.0"/>
      <point x="204.0" y="912.0"/>
    </contour>
  </outline>
</glyph>
<glyph name="dollar.BRACKET.150" format="2">
  <advance width="750.0"/>
  <outline>
    <contour>
      <point x="342.0" y="-120.0" type="line"/>
      <point x="438.0" y="-120.0" type="line"/>
      <point x="438.0" y="990.0" type="line"/>
      <point x="342.0" y="990.0" type="line"/>
    </contour>
    <contour>
      <point x="370.5" y="-16.0" type="curve" smooth="yes"/>
      <point x="541.5" y="-16.0"/>
      <point x="657.5" y="99.5"/>
      <point x="657.5" y="254.5" type="curve" smooth="yes"/>
      <point x="657.5" y="413.5"/>
      <point x="535.0" y="480.0"/>
      <point x="472.5" y="511.0" type="curve" smooth="yes"/>
      <point x="363.0" y="565.5" type="line" smooth="yes"/>
      <point x="320.5" y="586.5"/>
      <point x="269.5" y="617.5"/>
      <point x="269.5" y="681.0" type="curve" smooth="yes"/>
      <point x="269.5" y="740.0"/>
      <point x="313.5" y="786.0"/>
      <point x="386.5" y="786.0" type="curve" smooth="yes"/>
      <point x="464.0" y="786.0"/>
      <point x="538.5" y="733.0"/>
      <point x="582.0" y="670.5" type="curve"/>
      <point x="621.5" y="837.0" type="line"/>
      <point x="575.0" y="874.5"/>
      <point x="494.0" y="916.0"/>
      <point x="393.0" y="916.0" type="curve" smooth="yes"/>
      <point x="234.0" y="916.0"/>
      <point x="128.5" y="815.5"/>
      <point x="128.5" y="672.0" type="curve" smooth="yes"/>
      <point x="128.5" y="532.5"/>
      <point x="227.5" y="473.0"/>
      <point x="300.5" y="436.5" type="curve" smooth="yes"/>
      <point x="408.5" y="382.0" type="line" smooth="yes"/>
      <point x="442.5" y="365.0"/>
      <point x="516.5" y="327.5"/>
      <point x="516.5" y="245.5" type="curve" smooth="yes"/>
      <point x="516.5" y="172.5"/>
      <point x="459.5" y="116.0"/>
      <point x="375.5" y="116.0" type="curve" smooth="yes"/>
      <point x="279.0" y="116.0"/>
      <point x="193.5" y="181.5"/>
      <point x="151.5" y="260.0" type="curve"/>
      <point x="110.5" y="91.0" type="line"/>
      <point x="165.5" y="31.5"/>
      <point x="262.0" y="-16.0"/>
    </contour>
  </outline>
</glyph>
<glyph name="eight.lf" format="2">
  <advance width="750.0"/>
  <outline>
    <contour>
      <point x="375.0" y="-16.0" type="curve" smooth="yes"/>
      <point x="545.0" y="-16.0"/>
      <point x="692.0" y="121.5"/>
      <point x="692.0" y="293.5" type="curve" smooth="yes"/>
      <point x="692.0" y="420.5"/>
      <point x="615.5" y="525.5"/>
      <point x="508.0" y="573.0" type="curve"/>
      <point x="521.5" y="531.5" type="line"/>
      <point x="569.5" y="570.5"/>
      <point x="600.5" y="625.5"/>
      <point x="600.5" y="696.0" type="curve" smooth="yes"/>
      <point x="600.5" y="820.5"/>
      <point x="499.5" y="916.0"/>
      <point x="375.0" y="916.0" type="curve" smooth="yes"/>
      <point x="250.5" y="916.0"/>
      <point x="149.5" y="820.5"/>
      <point x="149.5" y="696.0" type="curve" smooth="yes"/>
      <point x="149.5" y="625.5"/>
      <point x="180.5" y="571.5"/>
      <point x="228.5" y="531.5" type="curve"/>
      <point x="242.0" y="573.0" type="line"/>
      <point x="134.5" y="525.5"/>
      <point x="58.0" y="420.5"/>
      <point x="58.0" y="293.5" type="curve" smooth="yes"/>
      <point x="58.0" y="119.0"/>
      <point x="202.5" y="-16.0"/>
    </contour>
    <contour>
      <point x="375.0" y="114.0" type="curve" smooth="yes"/>
      <point x="274.5" y="114.0"/>
      <point x="195.0" y="194.5"/>
      <point x="195.0" y="294.0" type="curve" smooth="yes"/>
      <point x="195.0" y="394.5"/>
      <point x="274.5" y="474.0"/>
      <point x="375.0" y="474.0" type="curve" smooth="yes"/>
      <point x="475.5" y="474.0"/>
      <point x="555.0" y="394.5"/>
      <point x="555.0" y="294.0" type="curve" smooth="yes"/>
      <point x="555.0" y="194.5"/>
      <point x="475.5" y="114.0"/>
    </contour>
    <contour>
      <point x="375.0" y="588.0" type="curve" smooth="yes"/>
      <point x="318.0" y="588.0"/>
      <point x="272.5" y="633.5"/>
      <point x="272.5" y="690.5" type="curve" smooth="yes"/>
      <point x="272.5" y="747.5"/>
      <point x="318.0" y="793.0"/>
      <point x="375.0" y="793.0" type="curve" smooth="yes"/>
      <point x="432.0" y="793.0"/>
      <point x="477.5" y="747.5"/>
      <point x="477.5" y="690.5" type="curve" smooth="yes"/>
      <point x="477.5" y="633.5"/>
      <point x="432.0" y="588.0"/>
    </contour>
  </outline>
</glyph>
<glyph name="eight.numr" format="2">
  <advance width="480.0"/>
  <outline>
    <contour>
      <point x="240.0" y="405.0" type="curve" smooth="yes"/>
      <point x="342.0" y="405.0"/>
      <point x="428.0" y="471.5"/>
      <point x="428.0" y="572.0" type="curve" smooth="yes"/>
      <point x="428.0" y="645.0"/>
      <point x="382.0" y="703.0"/>
      <point x="318.5" y="726.0" type="curve"/>
      <point x="336.0" y="688.0" type="line"/>
      <point x="364.5" y="707.5"/>
      <point x="387.0" y="741.0"/>
      <point x="387.0" y="783.0" type="curve" smooth="yes"/>
      <point x="387.0" y="864.5"/>
      <point x="325.0" y="915.0"/>
      <point x="240.0" y="915.0" type="curve" smooth="yes"/>
      <point x="155.0" y="915.0"/>
      <point x="93.0" y="857.5"/>
      <point x="93.0" y="783.0" type="curve" smooth="yes"/>
      <point x="93.0" y="741.0"/>
      <point x="114.5" y="707.5"/>
      <point x="144.0" y="688.0" type="curve"/>
      <point x="161.5" y="726.0" type="line"/>
      <point x="98.0" y="703.0"/>
      <point x="52.0" y="645.0"/>
      <point x="52.0" y="572.0" type="curve" smooth="yes"/>
      <point x="52.0" y="472.0"/>
      <point x="142.0" y="405.0"/>
    </contour>
    <contour>
      <point x="240.0" y="499.0" type="curve" smooth="yes"/>
      <point x="193.5" y="499.0"/>
      <point x="159.0" y="533.5"/>
      <point x="159.0" y="580.0" type="curve" smooth="yes"/>
      <point x="159.0" y="626.5"/>
      <point x="193.5" y="661.0"/>
      <point x="240.0" y="661.0" type="curve" smooth="yes"/>
      <point x="286.5" y="661.0"/>
      <point x="321.0" y="626.5"/>
      <point x="321.0" y="580.0" type="curve" smooth="yes"/>
      <point x="321.0" y="533.5"/>
      <point x="286.5" y="499.0"/>
    </contour>
    <contour>
      <point x="240.0" y="726.0" type="curve" smooth="yes"/>
      <point x="211.0" y="726.0"/>
      <point x="187.5" y="749.5"/>
      <point x="187.5" y="778.5" type="curve" smooth="yes"/>
      <point x="187.5" y="807.5"/>
      <point x="211.0" y="831.0"/>
      <point x="240.0" y="831.0" type="curve" smooth="yes"/>
      <point x="269.0" y="831.0"/>
      <point x="292.5" y="807.5"/>
      <point x="292.5" y="778.5" type="curve" smooth="yes"/>
      <point x="292.5" y="749.5"/>
      <point x="269.0" y="726.0"/>
    </contour>
  </outline>
</glyph>
<glyph name="el.lf" format="2">
  <advance width="690.0"/>
  <outline>
    <contour>
      <point x="100.5" y="0.0" type="line"/>
      <point x="632.5" y="0.0" type="line"/>
      <point x="632.5" y="129.0" type="line"/>
      <point x="258.5" y="129.0" type="line"/>
      <point x="288.5" y="83.5" type="line"/>
      <point x="490.0" y="472.0" type="line"/>
      <point x="460.5" y="458.5"/>
      <point x="431.0" y="452.5"/>
      <point x="397.0" y="452.5" type="curve" smooth="yes"/>
      <point x="302.0" y="452.5"/>
      <point x="231.0" y="526.0"/>
      <point x="231.0" y="618.5" type="curve" smooth="yes"/>
      <point x="231.0" y="712.0"/>
      <point x="304.5" y="785.0"/>
      <point x="398.0" y="785.0" type="curve" smooth="yes"/>
      <point x="484.5" y="785.0"/>
      <point x="555.0" y="722.0"/>
      <point x="574.5" y="638.5" type="curve"/>
      <point x="651.0" y="787.5" type="line"/>
      <point x="595.5" y="867.0"/>
      <point x="502.5" y="916.0"/>
      <point x="399.5" y="916.0" type="curve" smooth="yes"/>
      <point x="232.0" y="916.0"/>
      <point x="92.0" y="785.0"/>
      <point x="92.0" y="618.0" type="curve" smooth="yes"/>
      <point x="92.0" y="475.0"/>
      <point x="196.0" y="360.5"/>
      <point x="327.0" y="339.0" type="curve"/>
      <point x="314.0" y="398.5" type="line"/>
    </contour>
  </outline>
</glyph>
<glyph name="el.numr" format="2">
  <advance width="480.0"/>
  <outline>
    <contour>
      <point x="66.5" y="420.0" type="line"/>
      <point x="424.5" y="420.0" type="line"/>
      <point x="424.5" y="517.0" type="line"/>
      <point x="231.5" y="517.0" type="line"/>
      <point x="330.5" y="686.5" type="line"/>
      <point x="313.0" y="677.5"/>
      <point x="294.5" y="671.5"/>
      <point x="273.0" y="671.5" type="curve" smooth="yes"/>
      <point x="221.5" y="671.5"/>
      <point x="194.5" y="706.0"/>
      <point x="194.5" y="745.0" type="curve" smooth="yes"/>
      <point x="194.5" y="788.0"/>
      <point x="225.5" y="818.0"/>
      <point x="272.0" y="818.0" type="curve" smooth="yes"/>
      <point x="319.0" y="818.0"/>
      <point x="352.5" y="784.5"/>
      <point x="364.5" y="745.5" type="curve"/>
      <point x="421.5" y="844.0" type="line"/>
      <point x="390.0" y="885.5"/>
      <point x="335.0" y="915.0"/>
      <point x="269.5" y="915.0" type="curve" smooth="yes"/>
      <point x="165.0" y="915.0"/>
      <point x="84.0" y="842.5"/>
      <point x="84.0" y="747.0" type="curve" smooth="yes"/>
      <point x="84.0" y="669.5"/>
      <point x="137.0" y="607.0"/>
      <point x="214.0" y="591.5" type="curve"/>
      <point x="196.0" y="642.0" type="line"/>
    </contour>
  </outline>
</glyph>
<glyph name="emdash.case" format="2">
  <advance width="1440.0"/>
  <outline>
    <contour>
      <point x="60.0" y="387.0" type="line"/>
      <point x="1380.0" y="387.0" type="line"/>
      <point x="1380.0" y="513.0" type="line"/>
      <point x="60.0" y="513.0" type="line"/>
    </contour>
  </outline>
</glyph>
<glyph name="equal.titl" format="2">
  <advance width="750.0"/>
  <outline>
    <contour>
      <point x="90.0" y="304.5" type="line"/>
      <point x="660.0" y="304.5" type="line"/>
      <point x="660.0" y="367.5" type="line"/>
      <point x="90.0" y="367.5" type="line"/>
    </contour>
    <contour>
      <point x="90.0" y="532.5" type="line"/>
      <point x="660.0" y="532.5" type="line"/>
      <point x="660.0" y="595.5" type="line"/>
      <point x="90.0" y="595.5" type="line"/>
    </contour>
  </outline>
</glyph>
<glyph name="five.lf" format="2">
  <advance width="690.0"/>
  <outline>
    <contour>
      <point x="303.0" y="-16.0" type="curve" smooth="yes"/>
      <point x="477.5" y="-16.0"/>
      <point x="623.0" y="120.0"/>
      <point x="623.0" y="296.5" type="curve" smooth="yes"/>
      <point x="623.0" y="471.0"/>
      <point x="483.5" y="599.0"/>
      <point x="323.5" y="599.0" type="curve" smooth="yes"/>
      <point x="301.5" y="599.0"/>
      <point x="279.5" y="596.5"/>
      <point x="259.0" y="588.5" type="curve"/>
      <point x="259.0" y="771.0" type="line"/>
      <point x="551.0" y="771.0" type="line"/>
      <point x="551.0" y="900.0" type="line"/>
      <point x="138.0" y="900.0" type="line"/>
      <point x="138.0" y="401.5" type="line"/>
      <point x="176.0" y="447.0"/>
      <point x="233.5" y="477.0"/>
      <point x="297.0" y="477.0" type="curve" smooth="yes"/>
      <point x="400.0" y="477.0"/>
      <point x="484.0" y="400.5"/>
      <point x="484.0" y="297.5" type="curve" smooth="yes"/>
      <point x="484.0" y="195.5"/>
      <point x="402.0" y="116.0"/>
      <point x="302.0" y="116.0" type="curve" smooth="yes"/>
      <point x="204.5" y="116.0"/>
      <point x="126.0" y="188.5"/>
      <point x="108.5" y="282.0" type="curve"/>
      <point x="30.0" y="127.0" type="line"/>
      <point x="86.5" y="40.0"/>
      <point x="187.5" y="-16.0"/>
    </contour>
  </outline>
</glyph>
<glyph name="four.lf" format="2">
  <advance width="750.0"/>
  <outline>
    <contour>
      <point x="447.0" y="0.0" type="line"/>
      <point x="585.0" y="0.0" type="line"/>
      <point x="585.0" y="227.0" type="line"/>
      <point x="702.0" y="227.0" type="line"/>
      <point x="702.0" y="347.0" type="line"/>
      <point x="581.5" y="347.0" type="line"/>
      <point x="581.5" y="608.0" type="line"/>
      <point x="450.5" y="538.0" type="line"/>
      <point x="450.5" y="347.0" type="line"/>
      <point x="145.5" y="347.0" type="line"/>
      <point x="194.5" y="297.0" type="line"/>
      <point x="507.5" y="900.0" type="line"/>
      <point x="357.5" y="900.0" type="line"/>
      <point x="13.0" y="227.0" type="line"/>
      <point x="447.0" y="227.0" type="line"/>
    </contour>
  </outline>
</glyph>
<glyph name="four.numr" format="2">
  <advance width="480.0"/>
  <outline>
    <contour>
      <point x="272.0" y="420.0" type="line"/>
      <point x="374.0" y="420.0" type="line"/>
      <point x="374.0" y="528.0" type="line"/>
      <point x="438.0" y="528.0" type="line"/>
      <point x="438.0" y="617.0" type="line"/>
      <point x="373.0" y="617.0" type="line"/>
      <point x="373.0" y="758.0" type="line"/>
      <point x="276.0" y="704.5" type="line"/>
      <point x="276.0" y="614.0" type="line"/>
      <point x="114.0" y="614.0" type="line"/>
      <point x="150.0" y="578.0" type="line"/>
      <point x="320.0" y="900.0" type="line"/>
      <point x="205.0" y="900.0" type="line"/>
      <point x="12.0" y="528.0" type="line"/>
      <point x="272.0" y="528.0" type="line"/>
    </contour>
  </outline>
</glyph>
<glyph name="greater.titl" format="2">
  <advance width="750.0"/>
  <outline>
    <contour>
      <point x="90.0" y="165.5" type="line"/>
      <point x="675.0" y="451.0" type="line"/>
      <point x="90.0" y="736.5" type="line"/>
      <point x="90.0" y="665.5" type="line"/>
      <point x="416.0" y="508.5" type="line" smooth="yes"/>
      <point x="458.0" y="488.0"/>
      <point x="505.5" y="469.0"/>
      <point x="550.5" y="451.0" type="curve"/>
      <point x="505.5" y="433.0"/>
      <point x="458.0" y="414.0"/>
      <point x="416.0" y="393.5" type="curve" smooth="yes"/>
      <point x="90.0" y="236.0" type="line"/>
    </contour>
  </outline>
</glyph>
<glyph name="ogonekcomb.I" format="2">
  <anchor x="403.0" y="0.0" name="_ogonek"/>
  <outline>
    <contour>
      <point x="460.5" y="-315.0" type="curve"/>
      <point x="486.5" y="-204.5" type="line"/>
      <point x="438.0" y="-204.0"/>
      <point x="402.5" y="-180.5"/>
      <point x="402.5" y="-125.0" type="curve" smooth="yes"/>
      <point x="402.5" y="-78.5"/>
      <point x="432.0" y="-34.0"/>
      <point x="478.0" y="0.0" type="curve"/>
      <point x="328.0" y="0.0" type="line"/>
      <point x="295.0" y="-50.0"/>
      <point x="277.5" y="-100.0"/>
      <point x="277.5" y="-153.0" type="curve" smooth="yes"/>
      <point x="277.5" y="-260.0"/>
      <point x="359.0" y="-315.0"/>
    </contour>
  </outline>
</glyph>
<glyph name="one.lf" format="2">
  <advance width="480.0"/>
  <outline>
    <contour>
      <point x="210.0" y="0.0" type="line"/>
      <point x="354.0" y="0.0" type="line"/>
      <point x="354.0" y="926.0" type="line"/>
      <point x="66.0" y="782.0" type="line"/>
      <point x="66.0" y="643.0" type="line"/>
      <point x="254.0" y="735.5" type="line"/>
      <point x="210.0" y="764.5" type="line"/>
    </contour>
  </outline>
</glyph>
<glyph name="parenright.titl" format="2">
  <advance width="480.0"/>
  <outline>
    <contour>
      <point x="111.0" y="-180.0" type="curve"/>
      <point x="190.0" y="-180.0" type="line"/>
      <point x="291.0" y="-13.0"/>
      <point x="350.0" y="182.0"/>
      <point x="350.0" y="390.0" type="curve" smooth="yes"/>
      <point x="350.0" y="598.0"/>
      <point x="291.0" y="793.0"/>
      <point x="190.0" y="960.0" type="curve"/>
      <point x="111.0" y="960.0" type="line"/>
      <point x="220.5" y="799.0"/>
      <point x="281.5" y="604.0"/>
      <point x="281.5" y="390.0" type="curve" smooth="yes"/>
      <point x="281.5" y="176.0"/>
      <point x="220.5" y="-19.0"/>
    </contour>
  </outline>
</glyph>
<glyph name="ringcomb.case" format="2">
  <anchor x="360.0" y="900.0" name="_top"/>
  <outline>
    <contour>
      <point x="360.0" y="828.0" type="curve" smooth="yes"/>
      <point x="450.5" y="828.0"/>
      <point x="525.0" y="898.5"/>
      <point x="525.0" y="990.0" type="curve" smooth="yes"/>
      <point x="525.0" y="1081.5"/>
      <point x="450.5" y="1152.0"/>
      <point x="360.0" y="1152.0" type="curve" smooth="yes"/>
      <point x="268.5" y="1152.0"/>
      <point x="195.0" y="1081.5"/>
      <point x="195.0" y="990.0" type="curve" smooth="yes"/>
      <point x="195.0" y="898.5"/>
      <point x="268.5" y="828.0"/>
    </contour>
    <contour>
      <point x="360.0" y="913.5" type="curve" smooth="yes"/>
      <point x="318.0" y="913.5"/>
      <point x="283.5" y="948.0"/>
      <point x="283.5" y="990.0" type="curve" smooth="yes"/>
      <point x="283.5" y="1031.0"/>
      <point x="318.0" y="1066.5"/>
      <point x="360.0" y="1066.5" type="curve" smooth="yes"/>
      <point x="401.0" y="1066.5"/>
      <point x="436.5" y="1031.0"/>
      <point x="436.5" y="990.0" type="curve" smooth="yes"/>
      <point x="436.5" y="948.0"/>
      <point x="401.0" y="913.5"/>
    </contour>
  </outline>
</glyph>
<glyph name="seven.lf" format="2">
  <advance width="690.0"/>
  <outline>
    <contour>
      <point x="68.5" y="0.0" type="line"/>
      <point x="228.5" y="0.0" type="line"/>
      <point x="662.5" y="900.0" type="line"/>
      <point x="46.5" y="900.0" type="line"/>
      <point x="46.5" y="768.0" type="line"/>
      <point x="507.5" y="768.0" type="line"/>
      <point x="470.5" y="825.0" type="line"/>
    </contour>
  </outline>
</glyph>
<glyph name="six.lf" format="2">
  <advance width="750.0"/>
  <outline>
    <contour>
      <point x="378.0" y="-16.0" type="curve" smooth="yes"/>
      <point x="557.5" y="-16.0"/>
      <point x="699.0" y="119.5"/>
      <point x="699.0" y="295.0" type="curve" smooth="yes"/>
      <point x="699.0" y="467.5"/>
      <point x="562.5" y="600.0"/>
      <point x="395.5" y="600.0" type="curve" smooth="yes"/>
      <point x="348.5" y="600.0"/>
      <point x="302.5" y="589.0"/>
      <point x="260.0" y="548.5" type="curve"/>
      <point x="291.0" y="536.0" type="line"/>
      <point x="489.0" y="900.0" type="line"/>
      <point x="335.0" y="900.0" type="line"/>
      <point x="96.5" y="446.0" type="line" smooth="yes"/>
      <point x="71.5" y="398.0"/>
      <point x="57.0" y="347.5"/>
      <point x="57.0" y="293.5" type="curve" smooth="yes"/>
      <point x="57.0" y="119.5"/>
      <point x="198.5" y="-16.0"/>
    </contour>
    <contour>
      <point x="378.5" y="116.0" type="curve" smooth="yes"/>
      <point x="277.0" y="116.0"/>
      <point x="197.0" y="197.5"/>
      <point x="197.0" y="297.0" type="curve" smooth="yes"/>
      <point x="197.0" y="396.0"/>
      <point x="277.0" y="478.0"/>
      <point x="378.5" y="478.0" type="curve" smooth="yes"/>
      <point x="481.0" y="478.0"/>
      <point x="560.0" y="396.0"/>
      <point x="560.0" y="297.0" type="curve" smooth="yes"/>
      <point x="560.0" y="197.5"/>
      <point x="480.0" y="116.0"/>
    </contour>
  </outline>
</glyph>
<glyph name="three.lf" format="2">
  <advance width="690.0"/>
  <outline>
    <contour>
      <point x="301.0" y="-16.0" type="curve" smooth="yes"/>
      <point x="476.5" y="-16.0"/>
      <point x="623.0" y="119.5"/>
      <point x="623.0" y="295.0" type="curve" smooth="yes"/>
      <point x="623.0" y="436.5"/>
      <point x="527.0" y="548.5"/>
      <point x="403.0" y="583.0" type="curve"/>
      <point x="573.0" y="900.0" type="line"/>
      <point x="93.0" y="900.0" type="line"/>
      <point x="93.0" y="774.0" type="line"/>
      <point x="414.0" y="774.0" type="line"/>
      <point x="384.0" y="817.0" type="line"/>
      <point x="195.0" y="450.5" type="line"/>
      <point x="227.5" y="468.0"/>
      <point x="261.5" y="478.0"/>
      <point x="300.0" y="478.0" type="curve" smooth="yes"/>
      <point x="406.0" y="478.0"/>
      <point x="484.0" y="397.0"/>
      <point x="484.0" y="297.5" type="curve" smooth="yes"/>
      <point x="484.0" y="196.0"/>
      <point x="404.0" y="116.0"/>
      <point x="302.0" y="116.0" type="curve" smooth="yes"/>
      <point x="204.5" y="116.0"/>
      <point x="126.0" y="188.5"/>
      <point x="108.5" y="282.0" type="curve"/>
      <point x="30.0" y="127.0" type="line"/>
      <point x="86.5" y="40.0"/>
      <point x="186.5" y="-16.0"/>
    </contour>
  </outline>
</glyph>
<glyph name="three.numr" format="2">
  <advance width="480.0"/>
  <outline>
    <contour>
      <point x="213.5" y="405.0" type="curve" smooth="yes"/>
      <point x="324.5" y="405.0"/>
      <point x="408.0" y="482.0"/>
      <point x="408.0" y="584.0" type="curve" smooth="yes"/>
      <point x="408.0" y="666.0"/>
      <point x="351.5" y="733.0"/>
      <point x="270.0" y="749.0" type="curve"/>
      <point x="271.0" y="695.5" type="line"/>
      <point x="385.5" y="900.0" type="line"/>
      <point x="75.5" y="900.0" type="line"/>
      <point x="75.5" y="803.0" type="line"/>
      <point x="224.0" y="803.0" type="line"/>
      <point x="142.0" y="650.0" type="line"/>
      <point x="161.5" y="660.0"/>
      <point x="184.0" y="668.0"/>
      <point x="211.0" y="668.0" type="curve" smooth="yes"/>
      <point x="267.5" y="668.0"/>
      <point x="299.0" y="630.5"/>
      <point x="299.0" y="586.5" type="curve" smooth="yes"/>
      <point x="299.0" y="539.0"/>
      <point x="262.5" y="505.0"/>
      <point x="211.0" y="505.0" type="curve" smooth="yes"/>
      <point x="156.0" y="505.0"/>
      <point x="118.0" y="541.0"/>
      <point x="108.5" y="586.0" type="curve"/>
      <point x="52.0" y="481.5" type="line"/>
      <point x="85.0" y="436.5"/>
      <point x="145.0" y="405.0"/>
    </contour>
  </outline>
</glyph>
<glyph name="tildecomb_macroncomb" format="2">
  <anchor x="360.0" y="600.0" name="_top"/>
  <outline>
    <contour>
      <point x="187.5" y="690.5" type="line"/>
      <point x="205.5" y="734.0"/>
      <point x="234.0" y="759.5"/>
      <point x="275.5" y="759.5" type="curve" smooth="yes"/>
      <point x="330.0" y="759.5"/>
      <point x="382.0" y="710.5"/>
      <point x="447.5" y="710.5" type="curve" smooth="yes"/>
      <point x="499.0" y="710.5"/>
      <point x="542.5" y="738.0"/>
      <point x="568.0" y="788.5" type="curve"/>
      <point x="532.5" y="890.0" type="line"/>
      <point x="514.5" y="846.5"/>
      <point x="486.0" y="820.5"/>
      <point x="445.0" y="820.5" type="curve" smooth="yes"/>
      <point x="390.0" y="820.5"/>
      <point x="338.5" y="870.0"/>
      <point x="272.5" y="870.0" type="curve" smooth="yes"/>
      <point x="221.5" y="870.0"/>
      <point x="178.0" y="842.5"/>
      <point x="152.0" y="792.0" type="curve"/>
    </contour>
    <contour>
      <point x="183.0" y="929.5" type="line"/>
      <point x="537.0" y="929.5" type="line"/>
      <point x="537.0" y="1028.5" type="line"/>
      <point x="183.0" y="1028.5" type="line"/>
    </contour>
  </outline>
</glyph>
